<svg width="812" height="575" viewBox="0 0 812 575" fill="none" xmlns="http://www.w3.org/2000/svg">
<g clip-path="url(#clip0_607_355)">
<path opacity="0.1" d="M269.956 574.677C309.5 574.677 341.557 569.529 341.557 563.18C341.557 556.831 309.5 551.684 269.956 551.684C230.413 551.684 198.356 556.831 198.356 563.18C198.356 569.529 230.413 574.677 269.956 574.677Z" fill="#41B8D5"/>
<path opacity="0.1" d="M659.166 575C708.51 575 748.512 569.853 748.512 563.503C748.512 557.154 708.51 552.007 659.166 552.007C609.821 552.007 569.82 557.154 569.82 563.503C569.82 569.853 609.821 575 659.166 575Z" fill="#41B8D5"/>
<path opacity="0.1" d="M10.1698 248.441H84.7462V350.058H15.6295C15.4458 351.102 15.2695 352.152 15.0784 353.203H84.7462V435.154C84.6213 435.118 84.5111 435.074 84.3935 435.03C82.4242 434.251 80.4696 433.428 78.515 432.547L77.2658 431.981C75.3063 431.055 73.3468 430.076 71.3873 429.043C70.7039 428.683 70.0205 428.308 69.3445 427.926C58.4662 421.834 48.5838 414.115 40.0401 405.036C39.7902 404.793 39.5551 404.536 39.3053 404.301C38.1149 403.008 36.9465 401.701 35.8149 400.364L34.5657 398.895C33.2283 397.256 31.9351 395.574 30.6785 393.87C30.4948 393.62 30.3185 393.37 30.1274 393.135C25.0171 386.052 20.774 378.382 17.4886 370.289C17.3857 370.047 17.2975 369.782 17.202 369.555C16.1929 366.959 15.2988 364.339 14.5199 361.695C14.1819 360.585 13.8586 359.491 13.5794 358.337C13.4765 357.999 13.3883 357.669 13.3075 357.338C9.13374 341.052 8.64142 324.134 8.64142 307.334C8.64142 305.373 8.64142 303.404 8.64142 301.457C8.64142 294.662 8.72225 287.823 8.83982 280.992C8.83982 279.221 8.9133 277.458 8.95004 275.68C9.05291 271.17 9.19988 266.659 9.39093 262.149C9.43502 260.893 9.4938 259.644 9.55994 258.395C9.55994 257.675 9.59668 256.955 9.67016 256.236C9.84652 253.62 9.99348 251.027 10.1698 248.441Z" fill="#41B8D5"/>
<path opacity="0.1" d="M84.7462 135.298H43.8391C50.4887 124.893 57.7543 114.895 65.5969 105.356C71.6738 97.8924 78.0888 90.6199 84.7462 83.6118V135.298Z" fill="#41B8D5"/>
<path opacity="0.1" d="M84.7462 138.442V245.297H10.405C10.405 244.989 10.4564 244.673 10.4784 244.364C10.5446 243.519 10.6107 242.675 10.6842 241.837C10.765 240.853 10.8532 239.861 10.9487 238.899C11.0443 237.936 11.1471 236.761 11.2574 235.696C11.3676 234.631 11.4704 233.551 11.5954 232.486C11.7203 231.421 11.8305 230.355 11.9628 229.298C12.095 228.24 12.2126 227.167 12.3522 226.109C12.4625 225.228 12.58 224.354 12.6976 223.472C12.8666 222.231 13.043 220.982 13.234 219.748C13.234 219.564 13.2854 219.373 13.3148 219.197C14.656 210.162 16.4835 201.207 18.7892 192.369C21.2028 183.099 24.2848 174.015 28.0111 165.189C31.9715 155.957 36.6086 147.029 41.8844 138.479L84.7462 138.442Z" fill="#41B8D5"/>
<path opacity="0.1" d="M102.551 248.434V350.058H261.837V248.434H102.551ZM102.551 353.195V440.465C103.462 440.656 104.366 440.84 105.262 440.994C106.482 441.229 107.694 441.442 108.936 441.626C109.171 441.663 109.414 441.699 109.671 441.721C110.156 441.802 110.656 441.868 111.141 441.935C112.368 442.103 113.588 442.243 114.815 442.353C115.395 442.412 115.983 442.463 116.571 442.508L117.989 442.618C118.761 442.676 119.525 442.721 120.282 442.743C120.752 442.743 121.222 442.787 121.707 442.801C122.075 442.801 122.442 442.801 122.824 442.801C123.206 442.801 123.75 442.801 124.213 442.801C124.845 442.801 125.477 442.801 126.102 442.801H126.947C127.579 442.801 128.211 442.801 128.835 442.743H128.879C129.313 442.743 129.754 442.743 130.195 442.684C130.317 442.691 130.44 442.691 130.562 442.684C130.929 442.684 131.297 442.684 131.649 442.632H131.907L134.368 442.441C135.177 442.368 135.992 442.272 136.815 442.184L138.491 441.986C145.307 441.031 152.047 439.598 158.661 437.696C173.519 433.553 188.054 427.757 202.904 423.511C222.105 418.038 243.319 415.349 261.873 422.042V353.195H102.551ZM261.837 135.298V0.0071307C244.398 -0.181752 227.006 1.85735 210.084 6.07492C169.75 16.205 133.56 38.1769 102.551 66.2386V135.291H110.546V138.428H102.551V245.297H261.837V138.435H143.37V135.298H261.837ZM466.431 89.5988C456.452 89.2462 446.532 86.0874 437.56 81.2097C420.402 71.8803 406.698 57.4748 391.385 45.3172C359.567 19.9956 320.107 4.71591 279.626 0.925379V135.298H507.015L507.581 134.703L466.431 89.5988ZM487.146 85.9258L509.109 110.021V79.6083C501.754 80.5192 495.309 82.6862 487.175 85.8964L487.146 85.9258ZM509.109 462.136V353.195H462.309C462.184 352.732 462.059 352.262 461.912 351.792C462.052 352.262 462.169 352.732 462.302 353.195H279.656V431.981C281.39 433.266 283.102 434.618 284.8 435.992C286.629 437.461 288.437 439.011 290.252 440.531L292.082 442.045C292.956 442.779 293.838 443.514 294.727 444.204C296.49 445.634 298.271 447.045 300.069 448.436C300.958 449.17 301.869 449.831 302.773 450.522C317.122 461.489 332.258 471.387 348.06 480.134C351.602 482.093 355.175 484.005 358.781 485.871C361.184 487.098 363.601 488.317 366.026 489.5C369.671 491.278 373.345 492.992 377.048 494.642C411.192 509.965 447.297 520.479 484.331 525.885C492.556 527.099 500.813 528.054 509.102 528.749V462.129H509.837L509.109 462.136ZM279.656 138.435V245.297H509.139V138.435H279.656ZM279.656 248.434V350.058H509.139V248.434H279.656ZM526.951 79.4761V113.4L554.984 82.6495C545.696 81.1509 536.351 80.0809 526.951 79.4393V79.4761ZM526.951 248.471V350.058H750.151V248.434L526.951 248.471ZM749.335 470.202L750.121 353.195H526.951V529.917C541.327 530.521 555.726 530.35 570.084 529.403H570.334C577.192 528.972 584.019 528.345 590.813 527.523H590.968C627.216 523.305 662.661 513.85 696.193 499.454M793.189 265.168C792.351 263.192 791.477 261.231 790.587 259.291C788.927 255.618 787.171 252.048 785.363 248.478H767.948V350.058H811.978C811.956 321.291 804.674 291.907 793.211 265.131L793.189 265.168ZM767.948 353.232V453.872C780.351 441.986 790.83 428.389 798.377 412.844C807.451 394.127 811.603 373.859 811.941 353.217L767.948 353.232ZM767.948 218.859V245.304H783.732C778.957 236.201 773.695 227.36 767.97 218.822L767.948 218.859ZM616.576 99.4131C615.415 98.9723 614.254 98.5242 613.086 98.0908C600.763 93.5416 588.172 89.7586 575.382 86.7633L532.484 133.829L531.661 134.703L532.212 135.306H684.892C663.628 120.673 640.703 108.612 616.598 99.3763L616.576 99.4131ZM689.367 138.472H530.081L526.951 141.337V245.297H554.389H554.433H750.18V194.94C732.473 173.531 712.035 154.534 689.389 138.435L689.367 138.472Z" fill="#41B8D5"/>
<path opacity="0.1" d="M84.7462 192.34V245.297H10.405C10.405 244.989 10.4564 244.673 10.4784 244.364C10.5446 243.519 10.6107 242.675 10.6842 241.837C10.765 240.853 10.8532 239.861 10.9487 238.899C11.0443 237.936 11.1471 236.761 11.2574 235.696C11.3676 234.631 11.4704 233.551 11.5954 232.486C11.7203 231.421 11.8305 230.355 11.9628 229.298C12.095 228.24 12.2126 227.167 12.3522 226.109C12.4625 225.228 12.58 224.354 12.6976 223.472C12.8666 222.231 13.043 220.982 13.234 219.748C13.234 219.564 13.2854 219.373 13.3148 219.197C14.656 210.162 16.4835 201.207 18.7892 192.369L84.7462 192.34Z" fill="#41B8D5"/>
<path opacity="0.1" d="M10.1698 248.441H84.7462V350.058H15.6295C15.4458 351.102 15.2695 352.152 15.0784 353.203H84.7462V435.154C84.6213 435.118 84.5111 435.074 84.3935 435.03C82.4242 434.251 80.4696 433.428 78.515 432.547L77.2658 431.981C75.3063 431.055 73.3468 430.076 71.3873 429.043C70.7039 428.683 70.0205 428.308 69.3445 427.926C58.4662 421.834 48.5838 414.115 40.0401 405.036C39.7902 404.793 39.5551 404.536 39.3053 404.301C38.1149 403.008 36.9465 401.701 35.8149 400.364L34.5657 398.895C33.2283 397.256 31.9351 395.574 30.6785 393.87C30.4948 393.62 30.3185 393.37 30.1274 393.135C25.0171 386.052 20.774 378.382 17.4886 370.289C17.3857 370.047 17.2975 369.782 17.202 369.555C16.1929 366.959 15.2988 364.339 14.5199 361.695C14.1819 360.585 13.8586 359.491 13.5794 358.337C13.4765 357.999 13.3883 357.669 13.3075 357.338C9.13374 341.052 8.64142 324.134 8.64142 307.334C8.64142 305.373 8.64142 303.404 8.64142 301.457C8.64142 294.662 8.72225 287.823 8.83982 280.992C8.83982 279.221 8.9133 277.458 8.95004 275.68C9.05291 271.17 9.19988 266.659 9.39093 262.149C9.43502 260.893 9.4938 259.644 9.55994 258.395C9.55994 257.675 9.59668 256.955 9.67016 256.236C9.84652 253.62 9.99348 251.027 10.1698 248.441Z" fill="#41B8D5"/>
<path opacity="0.1" d="M158.625 153.737V245.297H102.551V153.737H110.546V122.737H143.362V153.737H158.625Z" fill="#41B8D5"/>
<path opacity="0.1" d="M158.625 248.434H102.558V350.051H158.625V248.434Z" fill="#41B8D5"/>
<path opacity="0.1" d="M102.551 353.203H158.625V437.682C152.01 439.582 145.27 441.013 138.454 441.964L136.778 442.17C135.955 442.265 135.14 442.346 134.332 442.427C133.523 442.508 132.686 442.567 131.87 442.618H131.613C131.26 442.618 130.878 442.662 130.533 442.669H130.158C129.717 442.669 129.276 442.714 128.835 442.728C128.211 442.765 127.586 442.772 126.947 442.78C126.675 442.78 126.418 442.78 126.146 442.78C125.514 442.78 124.889 442.78 124.257 442.78H122.868C122.494 442.78 122.134 442.78 121.744 442.78L120.326 442.728C119.591 442.728 118.798 442.647 118.033 442.596L116.622 442.493L114.866 442.332C113.632 442.221 112.405 442.082 111.192 441.913L109.723 441.707L108.988 441.604C107.761 441.413 106.548 441.208 105.314 440.973C104.41 440.818 103.513 440.627 102.602 440.444L102.551 353.203Z" fill="#41B8D5"/>
<path opacity="0.1" d="M509.139 142.923H462.904V245.29H509.139V142.923Z" fill="#41B8D5"/>
<path opacity="0.1" d="M509.146 248.434V350.059H279.656V306.225H401.892V332.083H462.904V248.434H509.146Z" fill="#41B8D5"/>
<path opacity="0.1" d="M509.873 462.158H509.139V528.823C500.86 528.123 492.605 527.17 484.375 525.965C447.323 520.542 411.203 510.006 377.048 494.657C367.187 490.22 357.527 485.376 348.067 480.126C332.266 471.375 317.127 461.478 302.773 450.515C299.168 447.753 295.609 444.927 292.096 442.037C289.664 440.032 287.247 437.975 284.8 435.977C283.102 434.603 281.39 433.252 279.656 431.959V353.202H462.294C462.169 352.732 462.044 352.262 461.912 351.799C462.052 352.262 462.184 352.732 462.309 353.202H509.139V462.114C509.388 462.121 509.631 462.143 509.873 462.158Z" fill="#41B8D5"/>
<path opacity="0.1" d="M629.722 135.298H599.594V125.94H613.1V98.0615C614.271 98.4876 615.437 98.9259 616.598 99.3765V125.94H629.722V135.298Z" fill="#41B8D5"/>
<path opacity="0.1" d="M702.307 245.297H554.403C554.403 245.297 554.403 245.297 554.455 245.334L554.389 245.297H526.951V142.931H534.725V218.594H570.253V173.784H599.602V138.442H629.729V173.813H659.078V218.624H702.307V245.297Z" fill="#41B8D5"/>
<path opacity="0.1" d="M526.951 248.434V350.058H702.307V248.434H526.951ZM749.908 469.681L750.151 389.242H702.307V353.247H526.951V529.918C541.327 530.522 555.726 530.35 570.084 529.404H570.334C577.192 528.973 584.019 528.346 590.813 527.523H590.968C627.217 523.305 662.661 513.851 696.193 499.454" fill="#41B8D5"/>
<path opacity="0.1" d="M771.063 353.203H811.971C811.611 373.838 807.466 394.105 798.399 412.823C790.852 428.374 780.366 441.972 767.977 453.85V389.205H771.063V353.203Z" fill="#41B8D5"/>
<path opacity="0.1" d="M811.993 350.058H771.063V265.131H793.211C804.674 291.907 811.956 321.291 811.993 350.058Z" fill="#41B8D5"/>
<path opacity="0.1" d="M509.146 171.382H484.375V203.476H509.146V171.382Z" fill="#41B8D5"/>
<path opacity="0.1" d="M509.146 237.907H484.375V245.297H509.146V237.907Z" fill="#41B8D5"/>
<path opacity="0.1" d="M509.146 248.434H484.375V269.995H509.146V248.434Z" fill="#41B8D5"/>
<path opacity="0.1" d="M509.146 304.433H484.375V336.527H509.146V304.433Z" fill="#41B8D5"/>
<path opacity="0.1" d="M509.146 370.958H484.375V403.053H509.146V370.958Z" fill="#41B8D5"/>
<path opacity="0.1" d="M509.139 462.114C509.388 462.114 509.631 462.114 509.873 462.158H509.139V469.614H484.375V437.483H509.139V462.114Z" fill="#41B8D5"/>
<path opacity="0.1" d="M509.139 503.994V528.786C500.86 528.086 492.605 527.134 484.375 525.929V503.994H509.139Z" fill="#41B8D5"/>
<path opacity="0.1" d="M385.815 347.7H279.656V350.058H385.815V347.7Z" fill="#41B8D5"/>
<path opacity="0.1" d="M385.815 353.195H279.656V362.231H385.815V353.195Z" fill="#41B8D5"/>
<path opacity="0.1" d="M385.815 391.85H279.656V406.38H385.815V391.85Z" fill="#41B8D5"/>
<path opacity="0.1" d="M385.807 435.999V450.529H302.773C299.168 447.777 295.606 444.951 292.089 442.052C289.657 440.047 287.247 437.99 284.792 435.999H385.807Z" fill="#41B8D5"/>
<path opacity="0.1" d="M385.807 480.141V494.657H377.041C367.189 490.215 357.532 485.369 348.067 480.119L385.807 480.141Z" fill="#41B8D5"/>
<path opacity="0.1" d="M590.99 258.285H570.092V279.177H590.99V258.285Z" fill="#41B8D5"/>
<path opacity="0.1" d="M138.505 160.943H117.607V181.835H138.505V160.943Z" fill="#41B8D5"/>
<path opacity="0.1" d="M138.505 209.471H117.607V230.363H138.505V209.471Z" fill="#41B8D5"/>
<path opacity="0.1" d="M138.505 257.999H117.607V278.891H138.505V257.999Z" fill="#41B8D5"/>
<path opacity="0.1" d="M138.505 306.519H117.607V327.411H138.505V306.519Z" fill="#41B8D5"/>
<path opacity="0.1" d="M138.505 355.046H117.607V375.938H138.505V355.046Z" fill="#41B8D5"/>
<path opacity="0.1" d="M138.505 403.574H117.607V424.466H138.505V403.574Z" fill="#41B8D5"/>
<path opacity="0.1" d="M670.769 258.285H649.87V279.177H670.769V258.285Z" fill="#41B8D5"/>
<path opacity="0.1" d="M590.99 309.817H570.092V330.709H590.99V309.817Z" fill="#41B8D5"/>
<path opacity="0.1" d="M670.769 309.817H649.87V330.709H670.769V309.817Z" fill="#41B8D5"/>
<path opacity="0.1" d="M590.99 361.342H570.092V382.234H590.99V361.342Z" fill="#41B8D5"/>
<path opacity="0.1" d="M670.769 361.342H649.87V382.234H670.769V361.342Z" fill="#41B8D5"/>
<path opacity="0.1" d="M590.99 412.874H570.092V433.766H590.99V412.874Z" fill="#41B8D5"/>
<path opacity="0.1" d="M670.769 412.874H649.87V433.766H670.769V412.874Z" fill="#41B8D5"/>
<path opacity="0.1" d="M590.99 464.406H570.092V485.298H590.99V464.406Z" fill="#41B8D5"/>
<path opacity="0.1" d="M670.769 464.406H649.87V485.298H670.769V464.406Z" fill="#41B8D5"/>
<path opacity="0.1" d="M570.092 529.403V515.931H590.982V527.486L570.092 529.403Z" fill="#41B8D5"/>
<path opacity="0.1" d="M13.2267 219.182V231.134H84.7462V219.182H13.2267ZM20.3544 230.385H14.5199V219.917H20.3985L20.3544 230.385ZM27.4747 230.385H21.5962V219.917H27.4747V230.385ZM34.5804 230.385H28.7019V219.917H34.5804V230.385ZM41.7007 230.385H35.8296V219.917H41.7081L41.7007 230.385ZM48.8137 230.385H42.9352V219.917H48.8137V230.385ZM55.9341 230.385H50.0556V219.917H55.9341V230.385ZM63.0545 230.385H57.1759V219.917H63.0545V230.385ZM70.1675 230.385H64.289V219.917H70.1675V230.385ZM77.2805 230.385H71.402V219.917H77.2805V230.385ZM84.3935 230.385H78.515V219.917H84.3935V230.385Z" fill="#41B8D5"/>
<path opacity="0.1" d="M13.2267 253.958V265.91H84.7462V253.958H13.2267ZM20.3544 265.153H14.5199V254.715H20.3985L20.3544 265.153ZM27.4747 265.153H21.5962V254.715H27.4747V265.153ZM34.5804 265.153H28.7019V254.715H34.5804V265.153ZM41.7007 265.153H35.8296V254.715H41.7081L41.7007 265.153ZM48.8137 265.153H42.9352V254.715H48.8137V265.153ZM55.9341 265.153H50.0556V254.715H55.9341V265.153ZM63.0545 265.153H57.1759V254.715H63.0545V265.153ZM70.1675 265.153H64.289V254.715H70.1675V265.153ZM77.2805 265.153H71.402V254.715H77.2805V265.153ZM84.3935 265.153H78.515V254.715H84.3935V265.153Z" fill="#41B8D5"/>
<path opacity="0.1" d="M13.2267 288.749V300.723H84.7462V288.749H13.2267ZM20.3544 299.944H14.5199V289.498H20.3985L20.3544 299.944ZM27.4747 299.944H21.5962V289.498H27.4747V299.944ZM34.5804 299.944H28.7019V289.498H34.5804V299.944ZM41.7007 299.944H35.8296V289.498H41.7081L41.7007 299.944ZM48.8137 299.944H42.9352V289.498H48.8137V299.944ZM55.9341 299.944H50.0556V289.498H55.9341V299.944ZM63.0545 299.944H57.1759V289.498H63.0545V299.944ZM70.1675 299.944H64.289V289.498H70.1675V299.944ZM77.2805 299.944H71.402V289.498H77.2805V299.944ZM84.3935 299.944H78.515V289.498H84.3935V299.944Z" fill="#41B8D5"/>
<path opacity="0.1" d="M13.2267 323.54V335.477H84.7462V323.54H13.2267ZM20.3544 334.735H14.5199V324.282H20.3985L20.3544 334.735ZM27.4747 334.735H21.5962V324.282H27.4747V334.735ZM34.5804 334.735H28.7019V324.282H34.5804V334.735ZM41.7007 334.735H35.8296V324.282H41.7081L41.7007 334.735ZM48.8137 334.735H42.9352V324.282H48.8137V334.735ZM55.9341 334.735H50.0556V324.282H55.9341V334.735ZM63.0545 334.735H57.1759V324.282H63.0545V334.735ZM70.1675 334.735H64.289V324.282H70.1675V334.735ZM77.2805 334.735H71.402V324.282H77.2805V334.735ZM84.3935 334.735H78.515V324.282H84.3935V334.735Z" fill="#41B8D5"/>
<path opacity="0.1" d="M13.5353 358.323C13.8219 359.447 14.1452 360.571 14.4832 361.68V359.072H20.3617V369.518H17.2167C17.3123 369.76 17.4078 370.025 17.5033 370.253H84.7462V358.323H13.5353ZM27.4968 369.518H21.6183V359.072H27.4968V369.518ZM34.6025 369.518H28.7239V359.072H34.6025V369.518ZM41.7228 369.518H35.8296V359.072H41.7081L41.7228 369.518ZM48.8358 369.518H42.9573V359.072H48.8358V369.518ZM55.9562 369.518H50.0777V359.072H55.9562V369.518ZM63.0765 369.518H57.198V359.072H63.0765V369.518ZM70.1895 369.518H64.311V359.072H70.1895V369.518ZM77.3026 369.518H71.424V359.072H77.3026V369.518ZM84.4156 369.518H78.537V359.072H84.4156V369.518Z" fill="#41B8D5"/>
<path opacity="0.1" d="M30.1421 393.113C30.3258 393.348 30.5022 393.613 30.6932 393.848H34.5804V398.865C34.9992 399.365 35.4107 399.864 35.8369 400.334V393.818H41.7155V404.301H39.3347C39.5698 404.544 39.7976 404.801 40.0695 405.036H84.7683V393.113H30.1421ZM48.8138 404.301H42.9352V393.863H48.8138V404.301ZM55.9341 404.301H50.0556V393.863H55.9341V404.301ZM63.0545 404.301H57.176V393.863H63.0545V404.301ZM70.1675 404.301H64.289V393.863H70.1675V404.301ZM77.2805 404.301H71.402V393.863H77.2805V404.301ZM84.3935 404.301H78.515V393.863H84.3935V404.301Z" fill="#41B8D5"/>
<path opacity="0.1" d="M69.3739 427.896C70.0426 428.278 70.7259 428.631 71.4167 429.013V428.646H77.2952V431.951L78.5444 432.532V428.646H84.4229V435C84.5356 435.056 84.6538 435.1 84.7756 435.132V427.896H69.3739Z" fill="#41B8D5"/>
<path opacity="0.1" d="M461.912 351.792C462.052 352.262 462.169 352.732 462.302 353.195C462.184 352.732 462.059 352.262 461.912 351.792ZM110.575 135.276V138.413H143.399V135.276H110.575ZM461.912 351.792C462.052 352.262 462.169 352.732 462.302 353.195C462.184 352.732 462.059 352.262 461.912 351.792ZM461.912 351.792C462.052 352.262 462.169 352.732 462.302 353.195C462.184 352.732 462.059 352.262 461.912 351.792Z" fill="#41B8D5"/>
<path d="M339.191 278.905C339.191 278.905 336.295 278.501 336.295 274.285C336.295 270.068 334.223 262.193 334.223 262.193C334.223 262.157 332.43 248.478 329.954 246.304C327.478 244.129 324.296 231.362 324.296 231.362C324.296 231.362 323.752 224.435 322.643 222.944C321.533 221.452 320.034 217.801 317.822 212.593C315.61 207.385 306.388 203.778 306.388 203.778C306.388 203.778 289.715 194.111 284.991 190.959C284.561 190.7 284.16 190.397 283.793 190.056C282.97 188.976 279.384 188.954 279.384 188.954C279.009 186.588 278.649 183.87 278.532 181.409C278.532 181.145 278.532 180.88 278.495 180.616C283.763 177.503 287.732 172.594 289.671 166.791C289.76 166.512 289.833 166.218 289.914 165.939C290.23 165.835 290.52 165.666 290.767 165.443C291.014 165.221 291.211 164.949 291.347 164.646C291.773 163.698 291.78 162.589 292.309 161.707C292.927 160.664 294.102 160.106 295.028 159.32C297.365 157.337 297.967 153.994 297.857 150.953C297.784 148.492 297.387 146.009 297.541 143.563L297.585 142.946C297.629 142.578 297.681 142.211 297.747 141.859C298.107 140.037 298.893 138.318 299.334 136.511C299.775 134.704 299.819 132.669 298.79 131.111C297.284 128.827 294.146 128.371 291.391 128.136C288.268 127.872 285.476 128.217 283.477 125.624C282.541 124.269 281.489 122.998 280.332 121.826C279.92 121.444 275.923 119.005 275.923 118.844C272.022 117.037 267.599 116.698 263.468 117.889C261.396 118.491 259.441 119.475 257.34 119.968C252.806 121.04 247.589 119.879 243.738 122.473C241.592 123.942 240.307 126.278 239.101 128.555C238.122 130.431 237.127 132.304 236.118 134.175C234.494 137.253 232.841 140.382 232.157 143.791C232.014 144.532 231.925 145.284 231.893 146.038V146.075C231.893 146.347 231.893 146.619 231.893 146.891V147.236C231.893 147.493 231.893 147.743 231.937 147.97C231.981 148.198 231.974 148.272 231.996 148.426C232.018 148.58 232.055 148.925 232.099 149.16C232.143 149.396 232.231 149.807 232.319 150.13C232.356 150.27 232.407 150.402 232.451 150.534C232.525 150.784 232.613 151.026 232.709 151.269C232.76 151.394 232.811 151.526 232.87 151.651C232.98 151.908 233.113 152.158 233.245 152.385C233.304 152.488 233.348 152.584 233.407 152.679C233.612 153.021 233.837 153.35 234.083 153.664C235.655 155.625 237.97 156.874 239.682 158.71C239.682 158.784 239.682 158.857 239.682 158.923C239.682 159.129 239.682 159.327 239.682 159.533C239.773 163.629 240.863 167.64 242.858 171.219C244.854 174.797 247.693 177.834 251.13 180.065C251.13 180.344 251.167 180.631 251.182 180.91C251.325 183.09 251.298 185.279 251.101 187.455C250.802 187.103 250.427 186.822 250.005 186.634C249.583 186.446 249.123 186.355 248.661 186.368C248.346 186.353 248.029 186.38 247.721 186.449L247.655 186.397V186.463C246.038 186.86 244.047 188.542 242.144 193.325C242.144 193.325 236.353 199.848 231.944 199.576C227.535 199.304 216.374 206.364 216.374 206.364C216.374 206.364 205.484 213.431 203.147 220.63C201.841 224.712 200.275 228.706 198.459 232.589L184.997 260.32L182.513 282.321C182.513 282.321 183.887 292.106 183.616 293.597C183.344 295.089 189.266 308.539 189.266 308.539C189.266 308.539 208.834 342.911 216.829 344.674L217.402 344.27C217.744 344.449 218.107 344.584 218.483 344.674L220.128 343.513C220.227 344.807 220.185 346.107 220.004 347.392C218.901 350.786 220.415 372.934 222.34 377.276C224.266 381.617 223.582 438.541 223.582 438.541L223.31 443.566C223.31 443.566 223.31 443.727 223.376 444.006L223.31 445.197L223.509 445.299C223.715 446.893 223.648 448.51 223.31 450.082C222.62 452.285 222.34 458.515 222.34 458.515C222.34 458.515 216.837 493.687 219.445 500.754C222.054 507.821 224.273 515.564 224.273 515.564C224.273 515.564 227.028 524.379 224.405 525.885C221.782 527.391 214.323 529.918 215.859 533.591C217.255 536.985 222.553 546.079 223.34 547.409L223.273 548.107L222.193 559.809C222.368 561.354 222.787 562.861 223.435 564.275C224.618 566.824 226.918 569.469 231.29 569.182C232.025 569.131 232.878 569.043 233.701 568.932C241.703 567.86 251.557 564.29 251.557 564.29C251.045 563.965 250.576 563.577 250.16 563.136C249.767 562.756 249.455 562.299 249.244 561.793C249.033 561.288 248.928 560.745 248.933 560.198C249.051 558.068 245.061 547.916 244.069 545.418C243.914 545.058 243.834 544.852 243.834 544.852C243.834 544.852 252.931 535.347 251.417 526.921C251.417 526.921 241.35 521.044 244.664 517.819C247.978 514.594 253.901 505.331 253.901 505.331C253.901 505.331 254.172 470.694 253.901 465.523C253.617 461.933 253.787 458.323 254.408 454.776C254.518 454.239 254.65 453.718 254.79 453.204C259.373 453.888 264 454.239 268.634 454.254C270.324 454.254 272.043 454.254 273.777 454.151C273.777 454.641 273.799 455.17 273.843 455.738C274.226 464.318 274.938 479.363 275.519 484.953C276.342 492.967 280.89 514.565 280.89 514.565C280.89 514.565 272.212 520.133 282.404 533.855C282.404 533.855 282.404 538.829 281.728 539.548C281.006 541.902 280.425 544.296 279.987 546.718C279.56 549.304 279.384 551.919 280.075 553.278C281.728 556.525 291.648 556.261 291.648 556.261L291.891 556.216C293.763 556.023 295.656 556.203 297.458 556.747C299.261 557.29 300.938 558.186 302.391 559.383C306.161 562.409 320.467 561.08 328.212 560.117C331.247 559.735 333.275 559.383 333.275 559.383C333.374 559.039 333.408 558.681 333.378 558.325C333.297 556.422 331.806 552.25 321.695 548.525C321.695 548.525 312.186 542.134 312.318 536.566H312.12H311.018C311.819 536.522 312.333 536.566 312.333 536.566C312.333 536.566 308.608 522.976 310.129 521.874C311.65 520.772 307.094 505.713 307.094 505.713C307.094 505.713 304.485 480.443 304.346 478.672C304.351 477.153 304.582 475.643 305.029 474.191L304.346 460.337C304.346 460.337 304.213 455.731 304.346 454.232C304.323 452.931 304.218 451.633 304.03 450.346C303.964 449.832 303.897 449.296 303.824 448.767C307.388 447.863 309.702 447.026 309.702 447.026L309.291 398.799C312.318 392.922 312.877 380.03 312.862 370.885C312.862 365.008 312.598 360.659 312.598 360.659L316.735 353.908C316.735 353.908 317.69 345.827 316.176 344.057C315.507 343.256 315.809 342.426 316.36 341.743C316.646 341.516 316.948 341.31 317.264 341.126C317.264 341.126 317.22 341.06 317.168 340.964C317.457 340.723 317.764 340.504 318.087 340.311C318.087 340.311 316.617 338.033 317.932 337.071C319.167 337.908 320.269 338.54 321.107 339.054C321.048 339.591 320.989 339.899 320.989 339.899L321.342 339.165C322.15 339.62 322.643 339.899 322.643 339.899C322.643 339.899 329.124 326.992 328.984 325.09C328.844 323.187 333.393 315.173 333.393 315.173C333.393 315.173 333.944 310.963 336.428 309.2C338.911 307.437 338.353 294.663 338.353 294.663C338.353 294.663 339.044 288.007 340.697 285.289C342.35 282.571 339.191 278.905 339.191 278.905ZM215.183 273.242L215.308 276.32C214.573 275.137 214.044 274.285 214.044 274.285L215.183 273.242Z" fill="url(#paint0_linear_607_355)"/>
<path d="M322.995 334.323L321.408 341.082C321.408 341.082 308.696 334.595 306.403 326.353C304.111 318.111 310.239 314.981 310.239 314.981L322.084 319.999L322.995 334.323Z" fill="white"/>
<path opacity="0.1" d="M322.995 334.323L321.408 341.082C321.408 341.082 308.696 334.595 306.403 326.353C304.111 318.111 310.239 314.981 310.239 314.981L322.084 319.999L322.995 334.323Z" fill="black"/>
<path d="M251.652 564.334C251.652 564.334 239.895 568.653 231.812 569.197C227.521 569.483 225.265 566.853 224.104 564.319C223.47 562.91 223.061 561.41 222.891 559.875L223.942 548.231L224.501 542.031L241.673 537.572L244.106 545.006L244.333 545.572C245.311 548.055 249.227 558.156 249.11 560.264C249.105 560.804 249.209 561.339 249.416 561.838C249.623 562.336 249.929 562.788 250.315 563.166C250.709 563.61 251.158 564.003 251.652 564.334Z" fill="white"/>
<path d="M331.96 558.413C331.989 558.766 331.955 559.122 331.857 559.463C331.857 559.463 306.712 563.658 301.568 559.463C300.118 558.238 298.427 557.329 296.605 556.795C294.783 556.261 292.869 556.114 290.987 556.363C290.987 556.363 281.258 556.628 279.634 553.425C278.958 552.08 279.134 549.473 279.553 546.902C279.98 544.492 280.55 542.111 281.258 539.769L281.647 539.46L283.962 537.602L311.062 536.801H311.268C311.135 542.34 320.468 548.694 320.468 548.694C330.38 552.367 331.843 556.517 331.96 558.413Z" fill="white"/>
<path opacity="0.1" d="M331.96 558.413C331.986 558.766 331.948 559.122 331.85 559.463C331.85 559.463 306.712 563.658 301.568 559.463C300.119 558.239 298.429 557.33 296.609 556.797C294.788 556.263 292.875 556.115 290.994 556.363C290.994 556.363 281.258 556.627 279.641 553.425C278.965 552.073 279.134 549.472 279.553 546.901C283.301 547.276 289.216 548.209 291.538 550.435C295.05 553.821 301.002 557.2 304.654 557.465C307.513 557.649 324.612 558.192 331.96 558.413Z" fill="black"/>
<path opacity="0.1" d="M251.652 564.333C251.652 564.333 239.895 568.653 231.812 569.196C227.521 569.483 225.265 566.853 224.111 564.311C227.102 565.318 231.254 566.376 233.436 565.406C236.023 564.26 245.193 563.518 250.337 563.202C250.728 563.631 251.17 564.01 251.652 564.333Z" fill="black"/>
<path d="M269.097 216.244C259.397 212.475 246.92 200.024 250.036 194.206C250.727 192.738 251.139 191.153 251.248 189.534C251.448 187.336 251.478 185.125 251.336 182.923C251.118 179.315 250.683 175.724 250.036 172.168C250.036 172.168 280.317 172.851 278.554 177.31C278.039 178.618 277.958 180.888 278.098 183.429C278.238 185.971 278.605 188.843 278.987 191.275C279.516 194.61 280.045 197.152 280.045 197.152C280.045 197.152 278.194 199.745 277.106 199.884C276.019 200.024 283.014 221.614 269.097 216.244Z" fill="#CF6F80"/>
<path opacity="0.1" d="M244.311 545.572L244.083 545.822C235.031 534.876 224.082 548.518 224.082 548.518L223.92 548.231L224.479 542.031L241.651 537.572L244.083 545.006L244.311 545.572Z" fill="black"/>
<path opacity="0.1" d="M311.275 537.572C311.275 537.572 304.662 537.433 301.135 540.547C297.607 543.662 280.56 541.223 281.295 540.547C281.512 540.212 281.644 539.829 281.677 539.431L283.991 537.572L311.091 536.771C311.194 537.264 311.275 537.572 311.275 537.572Z" fill="black"/>
<path d="M255.576 451.617C255.083 452.834 254.709 454.096 254.459 455.385C253.846 458.916 253.676 462.509 253.952 466.081C254.224 471.223 253.952 505.683 253.952 505.683C253.952 505.683 248.14 514.873 244.899 518.113C241.659 521.352 251.512 527.17 251.512 527.17C252.982 535.545 244.076 545.006 244.076 545.006C235.023 534.061 224.074 547.71 224.074 547.71C224.074 547.71 218.123 537.425 216.638 533.752C215.154 530.079 222.451 527.538 225.015 526.046C227.58 524.555 224.89 515.762 224.89 515.762C224.89 515.762 222.722 508.056 220.151 501.026C217.579 493.996 222.987 458.999 222.987 458.999C222.987 458.999 223.266 452.785 223.935 450.618C224.272 449.054 224.339 447.444 224.133 445.857C224.089 445.321 224.038 444.873 224.001 444.572C223.964 444.271 223.935 444.131 223.935 444.131L224.038 443.955L227.712 437.108C227.712 437.108 257.34 447.305 255.576 451.617Z" fill="#41B8D5"/>
<path d="M311.275 536.764C311.275 536.764 304.662 536.625 301.134 539.703C297.607 542.781 280.56 540.379 281.294 539.703C282.029 539.027 281.971 534.024 281.971 534.024C271.97 520.375 280.501 514.836 280.501 514.836C280.501 514.836 276.033 493.349 275.225 485.379C274.659 479.811 273.961 464.847 273.586 456.304C273.425 452.631 273.329 450.104 273.329 450.104L281.5 448.458L282.551 448.245L302.259 444.293C302.259 444.293 302.803 447.966 303.17 450.97C303.353 452.253 303.456 453.546 303.479 454.842C303.346 456.311 303.479 460.91 303.479 460.91L304.147 474.698C303.71 476.144 303.485 477.646 303.479 479.157C303.611 480.913 306.175 506.051 306.175 506.051C306.175 506.051 310.636 521.051 309.115 522.131C307.594 523.211 311.275 536.764 311.275 536.764Z" fill="#41B8D5"/>
<path opacity="0.1" d="M278.554 177.31C278.039 178.618 277.958 180.888 278.098 183.429C274.042 185.871 269.379 187.12 264.645 187.031C259.911 186.943 255.298 185.521 251.336 182.93C251.118 179.32 250.684 175.726 250.036 172.168C250.036 172.168 280.317 172.836 278.554 177.31Z" fill="black"/>
<path d="M290.259 161.075C290.265 163.723 289.848 166.354 289.025 168.87C287.184 174.507 283.409 179.312 278.367 182.435C273.325 185.559 267.341 186.8 261.472 185.939C255.603 185.079 250.227 182.172 246.295 177.732C242.363 173.292 240.127 167.606 239.983 161.678C239.983 161.472 239.983 161.281 239.983 161.075C239.926 157.739 240.534 154.424 241.772 151.324C243.01 148.225 244.853 145.403 247.193 143.023C249.533 140.643 252.324 138.753 255.403 137.463C258.482 136.172 261.787 135.508 265.125 135.508C268.463 135.508 271.768 136.172 274.847 137.463C277.926 138.753 280.716 140.643 283.057 143.023C285.397 145.403 287.24 148.225 288.478 151.324C289.716 154.424 290.324 157.739 290.267 161.075H290.259Z" fill="#CF6F80"/>
<path opacity="0.1" d="M269.097 216.244C259.397 212.475 246.92 200.024 250.036 194.206C250.727 192.738 251.139 191.153 251.248 189.534L264.526 200.442L272.741 207.179L278.987 191.282C279.516 194.617 280.045 197.159 280.045 197.159C280.045 197.159 278.194 199.752 277.106 199.892C276.019 200.031 283.014 221.614 269.097 216.244Z" fill="black"/>
<path d="M303.435 264.455L292.346 450.676L277.885 451.624L240.439 343.645L246.582 215.45L247.875 188.366L264.526 202.037L272.749 208.773L279.178 192.413L291.134 202.83L303.435 264.455Z" fill="#41B8D5"/>
<path opacity="0.1" d="M255.576 451.617C255.083 452.834 254.709 454.096 254.459 455.385C243.936 453.761 233.717 450.569 224.141 445.916L223.942 445.813L224.008 444.631L224.045 444.013L227.719 437.167C227.719 437.167 257.34 447.304 255.576 451.617Z" fill="black"/>
<path opacity="0.1" d="M281.669 455.415C278.979 455.872 276.266 456.181 273.542 456.34C273.381 452.667 273.285 450.14 273.285 450.14L281.456 448.495L281.669 455.415Z" fill="black"/>
<path opacity="0.1" d="M303.126 451.007C297.901 452.366 289.833 453.894 282.61 452.939L282.507 448.282L302.215 444.33C302.215 444.33 302.758 447.966 303.126 451.007Z" fill="black"/>
<path opacity="0.1" d="M282.478 453.791C252.35 458.934 224.758 444.19 224.758 444.19L225.022 439.195C225.022 439.195 225.706 382.565 223.81 378.223C221.914 373.882 220.437 351.866 221.51 348.487C222.583 345.107 217.593 294.435 217.593 294.435L216.785 273.866L187.201 261.885L200.428 234.323C202.215 230.458 203.751 226.483 205.028 222.422C207.328 215.267 218.005 208.237 218.005 208.237C218.005 208.237 228.954 201.214 233.282 201.479C237.61 201.743 243.283 195.264 243.283 195.264C247.471 184.59 251.263 189.424 251.263 189.424C251.263 189.931 251.263 189.424 251.057 191.003C249.587 202.72 274.821 239.744 275.181 240.398L277.584 298.916L280.016 372.971L282.478 453.791Z" fill="black"/>
<path d="M281.669 453.791C251.542 458.933 223.942 444.19 223.942 444.19L224.214 439.194C224.214 439.194 224.897 382.564 222.994 378.223C221.091 373.881 219.621 351.865 220.702 348.486C221.782 345.107 216.785 294.434 216.785 294.434L215.969 273.866L186.371 261.84L199.598 234.278C201.38 230.412 202.917 226.437 204.198 222.378C206.49 215.223 217.175 208.192 217.175 208.192C217.175 208.192 228.123 201.17 232.444 201.434C236.765 201.699 242.445 195.219 242.445 195.219C246.641 184.546 251.263 189.379 251.263 189.379C251.263 189.886 250.822 190.114 251.057 190.959C254.29 202.323 274.012 239.699 274.373 240.353L276.805 298.871L279.237 372.926L281.669 453.791Z" fill="white"/>
<path opacity="0.1" d="M273.55 242.021C270.309 240.669 253.144 221.077 253.144 221.077V216.618C252.519 215.149 248.808 216.045 245.796 217.074L247.089 189.989L248.559 191.209C251.777 202.566 273.175 241.367 273.55 242.021Z" fill="black"/>
<path d="M274.365 240.397C271.117 239.046 253.952 219.454 253.952 219.454V214.995C253.327 213.526 249.617 214.422 246.604 215.45L247.904 188.366L249.374 189.585C252.6 200.942 274.005 239.751 274.365 240.397Z" fill="white"/>
<path opacity="0.1" d="M224.758 338.106C225.162 338.106 245.707 335.947 245.707 335.947C245.707 335.947 258.148 360.402 257.332 366.352C256.517 372.302 255.04 377.569 250.035 376.636C245.031 375.703 223.104 377.371 223.104 377.371L224.758 338.106Z" fill="black"/>
<path d="M223.942 336.483C224.346 336.483 244.892 334.323 244.892 334.323C244.892 334.323 257.325 358.785 256.517 364.728C255.708 370.671 254.217 375.946 249.22 375.013C244.223 374.08 222.289 375.747 222.289 375.747L223.942 336.483Z" fill="white"/>
<path d="M239.425 325.001C239.425 325.001 258.28 335.132 258.684 338.224C259.088 341.317 249.088 336.873 246.927 336.336C245.505 335.994 244.058 335.768 242.599 335.661L228.189 336.05L239.425 325.001Z" fill="#CF6F80"/>
<path opacity="0.1" d="M268.288 243.285C269.384 243.285 270.272 242.397 270.272 241.301C270.272 240.206 269.384 239.318 268.288 239.318C267.193 239.318 266.304 240.206 266.304 241.301C266.304 242.397 267.193 243.285 268.288 243.285Z" fill="black"/>
<path d="M268.288 242.477C269.384 242.477 270.272 241.589 270.272 240.493C270.272 239.398 269.384 238.51 268.288 238.51C267.193 238.51 266.304 239.398 266.304 240.493C266.304 241.589 267.193 242.477 268.288 242.477Z" fill="#3F3D56"/>
<path opacity="0.1" d="M271.94 329.145C273.036 329.145 273.924 328.257 273.924 327.161C273.924 326.066 273.036 325.178 271.94 325.178C270.845 325.178 269.956 326.066 269.956 327.161C269.956 328.257 270.845 329.145 271.94 329.145Z" fill="black"/>
<path d="M271.94 328.329C273.036 328.329 273.924 327.441 273.924 326.346C273.924 325.25 273.036 324.362 271.94 324.362C270.845 324.362 269.956 325.25 269.956 326.346C269.956 327.441 270.845 328.329 271.94 328.329Z" fill="#3F3D56"/>
<path opacity="0.1" d="M270.265 286.214C271.361 286.214 272.249 285.326 272.249 284.231C272.249 283.136 271.361 282.248 270.265 282.248C269.169 282.248 268.281 283.136 268.281 284.231C268.281 285.326 269.169 286.214 270.265 286.214Z" fill="black"/>
<path d="M270.265 285.406C271.361 285.406 272.249 284.518 272.249 283.423C272.249 282.327 271.361 281.439 270.265 281.439C269.169 281.439 268.281 282.327 268.281 283.423C268.281 284.518 269.169 285.406 270.265 285.406Z" fill="#3F3D56"/>
<path d="M316 335.249C316 335.249 317.352 337.276 316 338.224C314.648 339.172 316.132 341.464 316.132 341.464C316.132 341.464 312.759 343.44 314.244 345.217C315.728 346.995 314.787 355.024 314.787 355.024L310.731 361.739C310.731 361.739 310.974 366.065 310.988 371.913C310.988 381.036 310.452 393.863 307.483 399.71L307.895 447.687C307.895 447.687 293.691 452.873 281.802 451.293L280.038 374.308C280.038 374.308 282.61 330.65 283.558 322.276C284.112 317.928 284.338 313.545 284.234 309.163C284.234 309.163 283.83 296.058 282.47 289.976C282.47 289.976 281.001 263.626 280.854 256.331C280.788 252.842 280.971 242.66 281.177 232.978C281.405 222.392 281.662 212.409 281.662 212.409L278.98 191.194C278.98 191.194 281.662 190.922 282.47 192.002C282.832 192.34 283.226 192.643 283.646 192.906C288.275 196.035 304.632 205.658 304.632 205.658C304.632 205.658 313.685 209.258 315.853 214.415C318.021 219.572 319.527 223.23 320.578 224.699C321.629 226.168 322.202 233.074 322.202 233.074C322.202 233.074 325.317 245.782 327.75 247.934C330.182 250.087 331.96 263.78 331.96 263.78L310.467 280.676C310.467 280.676 308.578 308.781 308.174 309.869C307.77 310.956 316 335.249 316 335.249Z" fill="white"/>
<path d="M316.816 335.249C316.816 335.249 318.16 337.276 316.816 338.224C315.471 339.172 316.94 341.464 316.94 341.464C316.94 341.464 313.59 343.462 315.059 345.24C316.529 347.017 315.603 355.046 315.603 355.046L311.547 361.761C311.547 361.761 311.789 366.087 311.811 371.935C311.811 381.059 311.275 393.885 308.306 399.732L308.711 447.709C308.711 447.709 294.485 452.895 282.61 451.316L280.854 374.33C280.854 374.33 283.426 330.672 284.373 322.298C284.929 317.95 285.152 313.567 285.042 309.185C285.042 309.185 284.638 296.08 283.286 289.998C283.286 289.998 281.816 263.648 281.662 256.353C281.596 252.864 281.787 242.682 281.985 233C282.213 222.415 282.47 212.431 282.47 212.431L278.928 190.93C278.928 190.93 282.47 190.93 283.286 192.024C283.645 192.366 284.039 192.669 284.462 192.928C289.091 196.057 305.455 205.68 305.455 205.68C305.455 205.68 314.501 209.28 316.669 214.437C318.836 219.594 320.343 223.252 321.401 224.721C322.459 226.19 323.017 233.096 323.017 233.096C323.017 233.096 326.133 245.804 328.565 247.957C330.997 250.109 332.754 263.773 332.754 263.773L311.26 280.668C311.26 280.668 309.372 308.774 308.96 309.861C308.549 310.948 316.816 335.249 316.816 335.249Z" fill="white"/>
<path opacity="0.1" d="M291.075 218.668L293.015 224.325L282.801 234.609C283.029 224.031 283.286 214.04 283.286 214.04L279.744 192.539C279.744 192.539 283.286 192.539 284.102 193.633C284.459 193.974 284.853 194.275 285.277 194.529L293.963 219.579L291.075 218.668Z" fill="black"/>
<path d="M290.259 217.045L292.207 222.701L281.993 232.986C282.22 222.4 282.478 212.417 282.478 212.417L278.928 190.915C278.928 190.915 282.478 190.915 283.286 192.01C283.646 192.35 284.04 192.652 284.462 192.913L293.154 217.956L290.259 217.045Z" fill="white"/>
<path opacity="0.1" d="M290.259 161.075C290.265 163.723 289.848 166.354 289.025 168.87C288.886 168.891 288.744 168.885 288.608 168.851C288.472 168.817 288.343 168.756 288.231 168.671C288.04 162.06 284.785 155.853 280.78 150.571C279.656 148.976 278.293 147.564 276.739 146.384C275.168 145.204 273.213 144.651 271.257 144.834C269.053 145.135 267.105 146.633 264.879 146.824C261.94 147.067 259.309 145.032 256.392 144.929C255.206 144.94 254.036 145.204 252.96 145.703C251.884 146.202 250.927 146.925 250.153 147.823C248.621 149.636 247.482 151.747 246.81 154.023C245.654 157.475 245.025 161.08 244.943 164.719C244.906 166.776 244.708 169.354 242.798 170.104C242.941 168.591 242.769 167.065 242.293 165.622C241.816 164.179 241.044 162.851 240.027 161.722L239.983 161.678C239.983 161.472 239.983 161.281 239.983 161.075C239.926 157.739 240.534 154.424 241.772 151.324C243.01 148.225 244.853 145.403 247.193 143.023C249.533 140.643 252.324 138.753 255.403 137.463C258.482 136.172 261.787 135.508 265.125 135.508C268.463 135.508 271.768 136.172 274.847 137.463C277.926 138.753 280.716 140.643 283.057 143.023C285.397 145.403 287.24 148.225 288.478 151.324C289.716 154.424 290.324 157.739 290.267 161.075H290.259Z" fill="black"/>
<path d="M275.534 121.165C271.715 119.369 267.372 119.029 263.321 120.21C261.286 120.812 259.368 121.789 257.303 122.281C252.894 123.346 247.75 122.193 243.966 124.772C241.864 126.241 240.6 128.562 239.425 130.817L236.486 136.415C234.884 139.478 233.267 142.593 232.598 145.965C231.93 149.337 232.334 153.112 234.472 155.823C236.03 157.799 238.33 159.041 240.02 160.899C241.032 162.03 241.801 163.357 242.276 164.798C242.751 166.239 242.924 167.763 242.783 169.274C244.701 168.539 244.884 165.953 244.929 163.896C245.01 160.258 245.64 156.652 246.795 153.201C247.466 150.924 248.604 148.812 250.138 147.001C250.913 146.103 251.87 145.381 252.946 144.882C254.022 144.383 255.191 144.118 256.377 144.106C259.316 144.209 261.954 146.237 264.864 145.994C267.069 145.811 269.023 144.305 271.242 144.011C273.199 143.826 275.154 144.379 276.724 145.561C278.278 146.739 279.638 148.152 280.758 149.748C284.77 155.03 288.025 161.222 288.216 167.848C289.047 168.458 290.245 167.665 290.656 166.725C291.068 165.784 291.082 164.682 291.604 163.786C292.207 162.75 293.36 162.199 294.264 161.421C296.557 159.445 297.13 156.117 297.042 153.098C296.953 150.079 296.366 147.015 296.939 144.047C297.284 142.226 298.063 140.521 298.489 138.722C298.915 136.922 298.967 134.902 297.96 133.352C296.491 131.074 293.397 130.626 290.7 130.413C287.636 130.149 284.895 130.487 282.941 127.908C282.023 126.563 280.99 125.299 279.854 124.132C279.465 123.751 275.534 121.326 275.534 121.165Z" fill="#512E4E"/>
<path opacity="0.1" d="M195.667 276.077L187.988 261.885L185.555 283.783C185.555 283.783 186.908 293.509 186.636 295C186.364 296.492 192.176 309.861 192.176 309.861C192.176 309.861 211.377 344.05 219.217 345.813L245.707 326.889L238.683 317.971C238.683 317.971 236.25 317.024 235.64 317.971C235.64 317.971 222.597 295.537 221.245 293.913C219.893 292.29 220.158 289.05 220.158 289.05C220.158 289.05 218.13 286.891 218.806 284.863C219.482 282.836 214.889 275.805 214.889 275.805L219.078 271.89L195.667 276.077Z" fill="black"/>
<path d="M188.392 260.269L186.364 261.885L183.932 283.783C183.932 283.783 185.284 293.509 185.012 295C184.74 296.492 190.56 309.861 190.56 309.861C190.56 309.861 209.753 344.05 217.593 345.813L244.091 326.889L237.059 317.971C237.059 317.971 234.626 317.024 234.017 317.971C234.017 317.971 220.974 295.537 219.621 293.913C218.269 292.29 218.541 289.05 218.541 289.05C218.541 289.05 216.513 286.89 217.189 284.863C217.865 282.835 213.265 275.805 213.265 275.805L217.454 271.89L188.392 260.269Z" fill="white"/>
<path opacity="0.1" d="M314.244 346.055C315.713 347.84 314.787 355.854 314.787 355.854L310.731 362.569C310.731 362.569 310.974 366.903 310.988 372.743L304.169 374.873C303.553 375.066 302.9 375.108 302.264 374.997C301.628 374.885 301.028 374.623 300.514 374.233C299.999 373.843 299.586 373.335 299.308 372.753C299.03 372.17 298.895 371.529 298.915 370.884L300.091 332.972L316 339.054C314.648 339.994 316.132 342.301 316.132 342.301C316.132 342.301 312.759 344.27 314.244 346.055Z" fill="black"/>
<path d="M315.059 345.239C316.529 347.025 315.603 355.046 315.603 355.046L311.547 361.761C311.547 361.761 311.789 366.087 311.811 371.935L304.867 374.102C304.264 374.289 303.624 374.33 303.002 374.22C302.379 374.111 301.792 373.854 301.289 373.472C300.786 373.09 300.381 372.593 300.109 372.022C299.837 371.452 299.705 370.825 299.724 370.194L300.907 332.164L316.823 338.246C315.463 339.186 316.948 341.486 316.948 341.486C316.948 341.486 313.59 343.462 315.059 345.239Z" fill="white"/>
<path d="M320.328 327.169C320.328 327.169 319.248 334.066 316.544 334.47C313.84 334.875 312.627 345.629 309.93 345.247C307.234 344.865 309.019 335.249 309.115 333.383C309.21 331.517 306.175 323.789 308.446 322.034C310.717 320.278 317.903 322.034 317.903 322.034L320.328 327.169Z" fill="#CF6F80"/>
<path opacity="0.1" d="M326.081 274.05L331.181 263.765C331.181 263.765 333.209 271.603 333.209 275.791C333.209 279.978 336.046 280.389 336.046 280.389C336.046 280.389 339.154 284.062 337.515 286.736C335.877 289.41 335.215 296.065 335.215 296.065C335.215 296.065 335.752 308.767 333.319 310.522C330.887 312.278 330.38 316.473 330.38 316.473C330.38 316.473 325.912 324.443 326.052 326.338C326.192 328.234 319.836 341.067 319.836 341.067C319.836 341.067 322.944 325.119 304.831 318.228C304.831 318.228 304.691 312.814 306.043 311.33C307.395 309.847 309.504 309.171 308.181 301.67C306.859 294.17 307.799 285.208 307.799 283.408C307.799 281.609 311.855 270.384 311.855 270.384L326.081 274.05Z" fill="black"/>
<path d="M328.286 262.296L332.739 263.765C332.739 263.765 334.774 271.603 334.774 275.79C334.774 279.978 337.611 280.389 337.611 280.389C337.611 280.389 340.719 284.062 339.08 286.736C337.442 289.41 336.788 296.065 336.788 296.065C336.788 296.065 337.324 308.767 334.892 310.522C332.46 312.278 331.916 316.473 331.916 316.473C331.916 316.473 327.456 324.443 327.595 326.338C327.735 328.233 321.371 341.067 321.371 341.067C321.371 341.067 324.487 325.119 306.366 318.228C306.366 318.228 306.234 312.814 307.586 311.33C308.938 309.846 311.047 309.171 309.725 301.67C308.402 294.17 309.342 285.208 309.342 283.408C309.342 281.608 313.399 270.384 313.399 270.384L328.286 262.296Z" fill="white"/>
<path opacity="0.1" d="M229.931 528.86C229.931 528.86 237.029 524.401 241.688 527.64C246.347 530.88 229.931 528.86 229.931 528.86Z" fill="black"/>
<path opacity="0.1" d="M285.086 515.071C285.086 515.071 291.369 514.263 296.645 519.942C301.921 525.62 285.086 515.071 285.086 515.071Z" fill="black"/>
<g opacity="0.1">
<path d="M294.279 159.812C293.375 160.59 292.214 161.149 291.611 162.184C291.097 163.073 291.082 164.168 290.671 165.123C290.259 166.078 289.062 166.856 288.231 166.254C288.04 159.643 284.778 153.435 280.773 148.146C279.653 146.55 278.292 145.137 276.739 143.959C275.166 142.777 273.209 142.224 271.25 142.409C269.045 142.71 267.105 144.209 264.879 144.392C261.939 144.642 259.302 142.607 256.384 142.504C255.199 142.516 254.03 142.781 252.955 143.282C251.88 143.782 250.925 144.506 250.153 145.406C248.619 147.215 247.48 149.324 246.81 151.599C245.655 155.05 245.026 158.656 244.943 162.295C244.899 164.344 244.708 166.9 242.812 167.664C242.856 168.207 242.856 168.753 242.812 169.295C244.723 168.561 244.914 165.975 244.958 163.918C245.04 160.279 245.669 156.674 246.824 153.222C247.495 150.945 248.634 148.834 250.168 147.022C250.941 146.125 251.897 145.403 252.971 144.904C254.046 144.405 255.214 144.14 256.399 144.128C259.338 144.231 261.984 146.258 264.893 146.016C267.098 145.832 269.052 144.326 271.264 144.032C273.223 143.848 275.181 144.4 276.753 145.582C278.307 146.761 279.668 148.173 280.787 149.77C284.792 155.051 288.055 161.244 288.246 167.87C289.076 168.48 290.274 167.687 290.685 166.746C291.097 165.806 291.112 164.704 291.626 163.808C292.229 162.772 293.39 162.221 294.293 161.442C296.586 159.466 297.159 156.139 297.071 153.119C297.071 153.024 297.071 152.928 297.071 152.84C296.931 155.455 296.233 158.122 294.279 159.812Z" fill="black"/>
<path d="M240.035 159.29C238.345 157.432 236.037 156.19 234.487 154.221C233.181 152.479 232.436 150.381 232.349 148.205C232.117 150.924 232.877 153.634 234.487 155.838C236.037 157.814 238.345 159.055 240.035 160.914C241.657 162.732 242.632 165.036 242.805 167.466C242.917 165.987 242.73 164.501 242.254 163.096C241.778 161.691 241.023 160.396 240.035 159.29Z" fill="black"/>
<path d="M298.504 137.113C298.07 138.912 297.299 140.624 296.946 142.439C296.737 143.651 296.661 144.883 296.718 146.112C296.743 145.411 296.819 144.714 296.946 144.025C297.299 142.203 298.07 140.499 298.504 138.699C298.757 137.707 298.839 136.678 298.746 135.658C298.701 136.148 298.62 136.634 298.504 137.113Z" fill="black"/>
</g>
<path opacity="0.1" d="M97.532 558.729C137.076 558.729 169.132 553.582 169.132 547.232C169.132 540.883 137.076 535.736 97.532 535.736C57.9882 535.736 25.9316 540.883 25.9316 547.232C25.9316 553.582 57.9882 558.729 97.532 558.729Z" fill="#41B8D5"/>
<path d="M99.8393 327H95.232V430.703H99.8393V327Z" fill="#535461"/>
<path d="M128.791 430.387L128.504 435.059L128.093 441.671L127.924 444.418L127.52 451.029L127.343 453.777L126.932 460.388L122.288 535.369C122.086 538.595 120.662 541.623 118.306 543.836C115.95 546.05 112.838 547.283 109.605 547.284H85.459C82.2264 547.283 79.1159 546.049 76.7609 543.836C74.4058 541.622 72.9835 538.594 72.7834 535.369L68.1614 460.337L67.75 453.725L67.5809 450.978L67.1694 444.366L67.0004 441.619L66.5889 435.008L66.295 430.336C66.244 429.436 66.3772 428.536 66.6866 427.69C66.9961 426.845 67.4751 426.071 68.0944 425.417C68.7136 424.762 69.4601 424.242 70.2879 423.886C71.1157 423.531 72.0074 423.348 72.9084 423.35H122.295C123.193 423.357 124.079 423.549 124.9 423.912C125.72 424.276 126.458 424.804 127.067 425.463C127.675 426.123 128.142 426.9 128.439 427.747C128.735 428.593 128.855 429.492 128.791 430.387Z" fill="#3F3D56"/>
<path d="M128.504 435.059L128.093 441.648H66.971L66.5595 435.059H128.504Z" fill="#9D9CB5"/>
<path d="M127.924 444.396L127.52 450.992H67.5515L67.14 444.396H127.924Z" fill="#9D9CB5"/>
<path d="M127.343 453.747L126.939 460.336H68.132L67.7206 453.747H127.343Z" fill="#9D9CB5"/>
<path d="M59.5274 365.867C86.3555 385.275 97.554 415.629 97.554 415.629C97.554 415.629 65.2222 414.519 38.3867 395.111C11.5513 375.703 0.374756 345.357 0.374756 345.357C0.374756 345.357 32.6919 346.459 59.5274 365.867Z" fill="#41B8D5"/>
<path d="M0.352722 345.357C0.352722 345.357 33.9191 363.979 44.6841 379.398C55.4492 394.817 97.554 415.629 97.554 415.629" stroke="#535461" stroke-width="2" stroke-miterlimit="10"/>
<path d="M76.847 326.772C91.4477 337.328 97.5541 353.849 97.5541 353.849C97.5541 353.849 79.9552 353.247 65.3471 342.691C50.739 332.134 44.6474 315.606 44.6474 315.606C44.6474 315.606 62.2388 316.208 76.847 326.772Z" fill="#41B8D5"/>
<path d="M44.6474 315.606C44.6474 315.606 62.9149 325.743 68.7713 334.133C74.6278 342.522 97.554 353.849 97.554 353.849" stroke="#535461" stroke-width="2" stroke-miterlimit="10"/>
<path d="M118.753 353.011C101.978 371.442 98.4285 395.53 98.4285 395.53C98.4285 395.53 122.082 389.727 138.843 371.288C155.604 352.85 159.168 328.77 159.168 328.77C159.168 328.77 135.529 334.58 118.753 353.011Z" fill="#41B8D5"/>
<path d="M159.183 328.777C159.183 328.777 137.33 347.671 131.774 360.688C126.219 373.705 98.4285 395.53 98.4285 395.53" stroke="#535461" stroke-width="2" stroke-miterlimit="10"/>
<path d="M734.573 346.525C734.573 346.525 722.441 286.185 727.085 278.677C727.085 278.677 727.254 271.699 726.975 262.803C726.975 262.465 726.975 262.127 726.975 261.782C727.792 262.326 728.643 262.817 729.524 263.251C733.803 265.448 738.716 266.083 743.412 265.043L739.738 260.952C738.856 259.975 737.938 258.917 737.747 257.624C737.556 256.331 738.085 255.178 738.541 254.024C742.031 245.209 742.215 234.124 735.491 227.395C729.811 221.739 728.43 214.437 722.264 209.273C717.76 205.489 715.284 199.943 712.947 194.581C710.97 190.048 708.979 185.479 707.847 180.675C706.966 176.921 706.613 173.035 705.4 169.369C704.188 165.703 701.917 162.141 698.368 160.503C697.104 159.922 695.701 159.592 694.547 158.82C693.033 157.799 692.122 156.139 691.027 154.684C685.465 147.339 666.837 151.665 658.019 154.648C655.622 155.399 653.402 156.628 651.494 158.262L651.575 158.13C651.641 158.02 651.722 157.909 651.796 157.799C650.83 158.579 649.997 159.509 649.327 160.554C648.041 162.589 647.504 164.962 646.431 167.165C645.138 169.773 637.944 177.053 641.038 179.984C641.255 180.181 641.503 180.34 641.773 180.454C642.934 180.937 644.213 181.065 645.447 180.822L645.315 181.137C644.258 183.723 643.716 186.491 643.72 189.284C643.72 201.354 653.677 211.138 665.97 211.138C668.281 211.141 670.579 210.786 672.782 210.088C672.833 210.367 672.877 210.646 672.929 210.925C672.929 211.036 672.966 211.146 672.98 211.256L672.591 211.8C672.571 211.766 672.549 211.734 672.525 211.704L660.988 227.821C659.225 229.063 649.069 236.409 648.496 241.918C647.894 247.949 647.291 255.009 647.291 255.009L647.21 256.522C646.706 256.943 646.117 257.25 645.482 257.421C644.848 257.592 644.184 257.624 643.536 257.514C639.936 256.926 639.936 270.736 639.936 270.736C639.936 270.736 637.54 272.94 635.894 271.03C634.248 269.12 629.898 275.592 629.898 275.592L602.636 276.767L602.012 276.804L600.542 272.257C600.384 271.777 600.043 271.38 599.593 271.15C599.143 270.92 598.621 270.877 598.139 271.03C598.026 271.068 597.915 271.114 597.809 271.17L597.706 271.229L597.515 271.361L597.419 271.449C597.367 271.497 597.318 271.548 597.272 271.603L597.184 271.706L597.14 271.75C596.97 271.985 596.858 272.256 596.812 272.541C596.766 272.827 596.788 273.12 596.876 273.396L598.139 277.296C592.878 278.354 587.499 281.337 591.886 289.55L569.651 285.443L576.845 291.482L613.982 299.143C613.49 300.025 613.813 301.303 615.349 303.103C621.962 310.868 634.013 312.976 638.863 313.519C640.144 316.384 641.743 319.094 643.632 321.6L643.213 329.335C643.213 329.335 630.934 388.294 628.686 391.284C629.821 389.998 630.86 388.631 631.794 387.192C628.23 399.306 623.248 415.886 621.94 418.369C619.839 422.336 617.891 438.387 620.287 439.415C621.022 439.731 623.123 439.577 626.121 439.349V440.679L625.989 491.065C625.989 491.065 626.591 521.969 624.938 524.915C623.285 527.861 622.844 534.039 622.844 534.039C622.844 534.039 616.231 546.226 610.991 551.126C610.956 551.164 610.916 551.198 610.874 551.228L610.712 550.082C610.712 550.082 604.415 558.031 590.483 557.583C590.483 557.583 582.098 563.033 594.532 563.327C606.965 563.621 622.844 562.886 622.844 562.886C622.844 562.886 633.932 545.991 643.22 548.194V560.999H646.064V547.989C647.383 547.121 648.512 545.994 649.382 544.677C650.252 543.36 650.846 541.88 651.127 540.327C651.37 538.726 651.192 537.089 650.61 535.578C650.027 534.067 649.061 532.734 647.806 531.71C647.242 531.2 646.789 530.58 646.477 529.887C646.165 529.194 645.999 528.444 645.991 527.684L645.888 527.773C645.888 527.516 645.822 527.251 645.792 526.979C644.977 520.368 643.955 506.726 647.563 496.633C652.508 482.793 654.007 463.517 650.407 452.043C649.245 448.375 648.291 444.645 647.548 440.87C647.46 440.392 647.379 439.937 647.306 439.511C649.767 439.843 652.204 440.334 654.603 440.98C662.943 443.279 681.188 443.705 696.766 443.58C696.803 444.006 696.847 444.454 696.899 444.903C697.176 448.017 697.757 451.098 698.633 454.1C700.587 459.976 701.484 485.886 701.484 485.886C701.484 485.886 704.004 507.189 702.63 515.857C701.895 520.676 701.16 525.517 700.742 530.38V530.476C700.742 530.476 696.612 542.23 693.592 548.613C693.518 548.775 693.438 548.936 693.364 549.091C692.559 549.164 691.766 549.339 691.005 549.612C691.005 549.612 686.957 557.693 682.922 559.03C678.888 560.367 680.226 564.767 689.359 563.151C698.493 561.535 712.286 560.212 712.286 560.212L712.881 551.97L715.688 548.459L714.953 556.679L717.944 556.091L717.547 546.094L722.139 540.349C722.139 540.349 727.687 535.412 719.443 525.701V525.914C719.354 525.775 719.274 525.628 719.178 525.488V525.444C717.811 523.328 716.724 519.383 718.715 512.383C722.316 499.733 724.41 488.251 724.41 488.251C724.41 488.251 732.449 457.493 722.786 442.941H723.212C722.222 440.893 721.522 438.718 721.133 436.477C721.084 436.212 721.04 435.94 721 435.661C728.15 435.25 735.168 433.957 740.892 431.165C740.87 431.136 737.424 358.146 734.573 346.525ZM643.801 295.617V295.764L642.331 295.838L643.801 295.617ZM638.76 296.315C638.518 296.369 638.292 296.477 638.099 296.631C637.467 297.525 637.07 298.563 636.945 299.65L634.652 299.136C634.652 299.136 633.043 298.791 630.729 298.401L629.634 297.3C632.646 297.05 635.777 296.682 638.76 296.315Z" fill="url(#paint1_linear_607_355)"/>
<path d="M714.615 546.196L713.74 556.606L716.672 556.018L716.232 544.727L714.615 546.196Z" fill="#1D2366"/>
<path d="M647.725 496.773C644.19 506.837 645.19 520.419 645.983 527.016C646.277 529.455 646.549 530.939 646.549 530.939C646.549 530.939 641.266 542.972 640.825 543.427C640.384 543.882 625.276 553.102 625.276 553.102L614.717 559.265C614.717 559.265 604.003 554.571 609.14 552.955C610.189 552.534 611.134 551.889 611.91 551.067C617.054 546.182 623.513 534.039 623.513 534.039C623.513 534.039 623.953 527.875 625.57 524.944C627.187 522.013 626.599 491.212 626.599 491.212L626.724 441.002V434.457L646.821 434.603C646.948 436.826 647.237 439.035 647.688 441.215C648.409 444.977 649.344 448.695 650.488 452.351C654.029 463.804 652.56 482.984 647.725 496.773Z" fill="#FFB0B1"/>
<path opacity="0.1" d="M646.549 530.939C646.549 530.939 641.266 542.972 640.825 543.427C640.384 543.882 625.276 553.102 625.276 553.102L614.717 559.265C614.717 559.265 604.003 554.571 609.14 552.955C610.189 552.534 611.134 551.89 611.91 551.067L612.365 554.277L615.885 554.13L646.013 527.031C646.277 529.455 646.549 530.939 646.549 530.939Z" fill="black"/>
<path d="M646.182 527.714L615.885 554.997L612.365 555.144L611.631 550.002C611.631 550.002 605.473 557.921 591.791 557.48C591.791 557.48 583.575 562.909 595.751 563.202C607.927 563.496 623.476 562.762 623.476 562.762C623.476 562.762 634.336 545.866 643.426 548.07V560.83H646.218V547.952C647.517 547.078 648.625 545.951 649.476 544.638C650.327 543.325 650.904 541.854 651.171 540.312C651.413 538.724 651.242 537.101 650.674 535.598C650.107 534.095 649.162 532.764 647.93 531.732C647.381 531.217 646.942 530.594 646.641 529.903C646.34 529.213 646.184 528.467 646.182 527.714Z" fill="#1D2366"/>
<path d="M717.407 512.463C715.453 519.442 716.518 523.372 717.855 525.481V525.525C719.571 528.128 720.764 531.039 721.368 534.097L721.485 534.758L707.7 554.85L700.22 557.788C700.22 557.788 688.191 553.682 690.388 552.506C690.939 552.22 691.799 550.692 692.784 548.584C695.723 542.229 699.779 530.505 699.779 530.505V530.41C700.205 525.569 700.881 520.742 701.631 515.938C702.975 507.292 700.506 486.069 700.506 486.069C700.506 486.069 699.625 460.263 697.714 454.393C696.852 451.409 696.278 448.349 696.002 445.255C695.605 441.582 695.517 438.555 695.517 438.555C695.517 438.555 703.438 427.536 717.958 439.437C719.119 440.386 720.141 441.494 720.993 442.728C731.023 456.994 722.948 488.42 722.948 488.42C722.948 488.42 720.927 499.85 717.407 512.463Z" fill="#FFB0B1"/>
<path opacity="0.1" d="M721.508 534.759L707.722 554.85L700.242 557.788C700.242 557.788 688.213 553.682 690.41 552.506C690.961 552.22 691.821 550.692 692.806 548.584C697.898 548.54 700.536 553.388 700.536 553.388L706.988 552.359C706.988 552.359 715.497 535.64 717.407 534.619C719.318 533.598 717.701 526.986 717.701 526.986V525.304C717.753 525.363 717.797 525.429 717.856 525.488V525.532C719.571 528.135 720.764 531.047 721.368 534.105L721.508 534.759Z" fill="black"/>
<path d="M700.977 553.822C700.977 553.822 697.303 547.078 690.263 549.568C690.263 549.568 686.303 557.649 682.342 558.956C678.381 560.264 679.704 564.672 688.654 563.063C697.604 561.454 711.095 560.124 711.095 560.124L711.683 551.904L720.78 540.32C720.78 540.32 726.203 535.405 718.135 525.73V527.413C718.135 527.413 719.751 534.024 717.841 535.045C715.93 536.066 707.451 552.793 707.451 552.793L700.977 553.822Z" fill="#1D2366"/>
<path opacity="0.1" d="M646.843 434.589C646.97 436.811 647.26 439.021 647.71 441.2C639.436 439.988 631.757 440.59 626.724 440.987V434.442L646.843 434.589Z" fill="black"/>
<path opacity="0.1" d="M721.809 444.557C721.809 444.557 710.052 445.13 696.032 445.248C695.635 441.575 695.547 438.548 695.547 438.548C695.547 438.548 703.468 427.529 717.988 439.43C719.149 440.379 720.17 441.487 721.023 442.721C721.25 443.347 721.513 443.96 721.809 444.557Z" fill="black"/>
<path d="M721.809 443.235C721.809 443.235 670.313 445.725 654.617 441.325C638.922 436.925 623.366 440.738 621.022 439.716C618.677 438.695 620.581 422.703 622.638 418.744C624.696 414.784 635.982 374.741 635.982 374.741L646.843 318.133L658.284 314.982L659.092 314.754L679.028 309.259L693.636 305.226C693.636 305.226 722.683 418.597 720.192 426.956C719.288 430.158 719.142 433.525 719.766 436.793C720.147 439.024 720.834 441.192 721.809 443.235Z" fill="#1D2366"/>
<path d="M608.985 279.419C608.985 279.419 598.698 290.438 606.487 296.58C614.276 302.721 619.398 297.167 619.398 297.167L608.985 279.419Z" fill="#C7DAF5"/>
<path opacity="0.1" d="M608.985 279.419C608.985 279.419 598.698 290.438 606.487 296.58C614.276 302.721 619.398 297.167 619.398 297.167L608.985 279.419Z" fill="black"/>
<path d="M692.1 206.973C692.1 206.973 690.895 208.119 689.08 209.809C686.494 212.226 682.665 215.759 679.27 218.72C674.568 222.811 670.688 225.816 672.077 223.252C673.465 220.688 673.201 216.222 672.51 212.042C672.459 211.763 672.415 211.484 672.363 211.212C671.791 208.142 671.033 205.11 670.093 202.132C670.093 202.132 677.691 192.318 681.894 188.447C683.459 186.978 684.554 186.375 684.62 187.396C684.693 188.77 685.722 191.804 687.001 195.022C687.037 195.124 687.074 195.22 687.118 195.323C687.971 197.527 688.933 199.789 689.778 201.743C691.072 204.74 692.1 206.973 692.1 206.973Z" fill="#FFB0B1"/>
<path opacity="0.1" d="M687.118 195.322C686.404 199.162 684.672 202.739 682.102 205.68C679.532 208.621 676.22 210.818 672.51 212.042C671.926 208.689 671.118 205.378 670.093 202.132C670.093 202.132 684.399 183.657 684.62 187.396C684.671 188.814 685.788 191.958 687.118 195.322Z" fill="black"/>
<path opacity="0.1" d="M671.085 216.978L672.936 214.371C672.936 214.371 674.163 221.849 678.675 218.55C683.187 215.252 683.407 243.373 683.407 243.373L678.565 315.753L643.573 313.659L644.565 278.685L648.526 261.054L658.321 235.424L664.148 226.954L671.085 216.978Z" fill="black"/>
<path d="M683.407 243.821L678.998 309.266L678.536 316.201L659.026 315.033L658.291 314.989L643.595 314.107L644.587 279.126L648.548 261.495L658.343 235.865L664.17 227.395L671.107 217.383L672.958 214.782C672.958 214.782 674.185 222.26 678.697 218.962L678.793 218.896C683.202 216.104 683.407 243.821 683.407 243.821Z" fill="#1D2366"/>
<path d="M649.04 255.369C649.04 255.369 647.284 259.042 643.757 258.447C640.23 257.852 640.237 271.669 640.237 271.669C640.237 271.669 637.893 273.873 636.276 271.963C634.66 270.053 630.398 276.51 630.398 276.51L603.695 277.686C603.695 277.686 615.577 283.114 613.247 299.54C613.247 299.54 653.589 297.042 654.911 293.23C656.234 289.417 649.04 255.369 649.04 255.369Z" fill="white"/>
<path opacity="0.03" d="M649.04 255.369C649.04 255.369 647.284 259.042 643.757 258.447C640.23 257.852 640.237 271.669 640.237 271.669C640.237 271.669 637.893 273.873 636.276 271.963C634.66 270.053 630.398 276.51 630.398 276.51L603.695 277.686C603.695 277.686 615.577 283.114 613.247 299.54C613.247 299.54 653.589 297.042 654.911 293.23C656.234 289.417 649.04 255.369 649.04 255.369Z" fill="black"/>
<path d="M571.436 286.317L578.476 292.326L636.423 304.499L629.237 297.167L571.436 286.317Z" fill="white"/>
<path d="M671.195 219.292C670.232 220.762 667.477 228.284 665.177 234.851C663.259 240.324 661.657 245.136 661.657 245.136C661.657 245.136 657.917 269.48 656.006 273.88C654.096 278.281 655.132 295.441 655.132 295.441L648.011 337.82C648.011 337.82 644.785 359.674 639.803 372.728C634.888 385.576 629.413 391.6 629.244 391.791C631.449 388.808 643.463 330.085 643.463 330.085L647.431 256.022C647.431 256.022 648.011 248.985 648.599 242.968C649.187 236.952 661.091 228.739 661.091 228.739L672.569 212.424C673.723 213.966 672.951 216.655 671.195 219.292Z" fill="white"/>
<path d="M641.266 314.474C641.266 314.474 624.365 313.74 616.179 303.911C607.993 294.082 635.101 299.988 635.101 299.988L642.147 301.604L641.266 314.474Z" fill="#FFB0B1"/>
<path opacity="0.1" d="M720.192 426.964C719.288 430.165 719.142 433.533 719.766 436.8C701.33 438.107 681.607 433.127 681.607 433.127C677.933 436.506 668.255 441.487 668.255 441.487L662.979 376.107C659.607 367.292 658.284 321.108 658.284 321.108C658.284 321.108 658.585 318.691 659.019 315.069C659.019 314.981 659.019 314.886 659.056 314.798C660.371 304.682 662.979 285.693 664.258 283.129C666.022 279.603 658.835 270.222 658.835 270.222L662.105 242.344L662.502 238.98C669.394 235.902 674.678 226.073 674.678 226.073L678.734 218.969C683.143 216.141 683.371 243.857 683.371 243.857L678.962 309.303L693.57 305.27C693.57 305.27 722.683 418.604 720.192 426.964Z" fill="black"/>
<path d="M739.114 431.482C719.016 441.457 682.489 432.216 682.489 432.216C678.815 435.595 669.137 440.576 669.137 440.576L663.854 375.197C660.488 366.381 659.166 320.197 659.166 320.197C659.166 320.197 663.413 285.737 665.177 282.218C665.691 281.19 665.441 279.662 664.831 278.017C661.833 270.184 660.73 261.754 661.613 253.415L663.024 241.434L663.413 238.076C670.313 234.991 675.596 225.162 675.596 225.162L679.27 218.727L686.031 206.871L689.234 201.258L689.778 201.75L693.93 205.512C693.93 205.512 695.693 206.981 698.339 209.185C704.092 214.033 714.034 222.569 719.163 227.792C723.675 232.391 725.101 250.278 725.512 263.743C725.784 272.61 725.622 279.559 725.622 279.559C721.074 287.045 732.971 347.142 732.971 347.142C735.741 358.756 739.114 431.482 739.114 431.482Z" fill="white"/>
<path opacity="0.03" d="M700.536 225.015C700.536 225.015 686.743 251.262 688.345 261.238C689.947 271.214 694.503 282.505 692.306 285.142C691.551 286.141 690.575 286.952 689.455 287.512C688.334 288.071 687.099 288.364 685.847 288.367C683.642 288.514 677.764 292.62 677.764 293.061C677.764 293.502 672.334 293.502 667.477 295.559C662.619 297.616 655.448 298.784 655.448 298.784C655.448 298.784 641.486 298.343 640.186 299.665C638.885 300.987 637.548 308.899 640.332 315.209C643.117 321.519 646.211 326.228 648.548 327.088C650.884 327.947 665.713 322.981 677.742 321.806C689.771 320.631 702.829 311.103 702.829 311.103C702.829 311.103 717.209 305.961 719.729 297.314C722.25 288.668 716.65 241.147 716.65 241.147C716.65 241.147 712.418 218.999 700.536 225.015Z" fill="black"/>
<path opacity="0.03" d="M698.772 222.811C698.772 222.811 684.98 249.066 686.596 259.035C688.213 269.003 692.754 280.301 690.55 282.946C689.798 283.946 688.823 284.758 687.704 285.318C686.584 285.877 685.35 286.169 684.098 286.171C681.894 286.318 676.015 290.424 676.015 290.865C676.015 291.305 670.585 291.305 665.728 293.355C660.871 295.405 653.699 296.58 653.699 296.58C653.699 296.58 639.737 296.139 638.444 297.461C637.151 298.784 635.799 306.703 638.591 313.006C641.383 319.308 644.469 324.024 646.806 324.884C649.143 325.743 663.972 320.778 676 319.61C688.029 318.442 701.087 308.899 701.087 308.899C701.087 308.899 715.46 303.757 717.951 295.118C720.442 286.479 714.872 238.943 714.872 238.943C714.872 238.943 710.654 216.802 698.772 222.811Z" fill="black"/>
<path d="M700.102 223.693C700.102 223.693 686.31 249.947 687.926 259.916C689.543 269.885 694.084 281.183 691.887 283.82C691.135 284.822 690.16 285.636 689.039 286.197C687.918 286.758 686.682 287.051 685.428 287.052C683.224 287.199 677.345 291.305 677.345 291.739C677.345 292.172 671.922 292.18 667.058 294.236C662.193 296.293 655.029 297.461 655.029 297.461C655.029 297.461 641.067 297.021 639.767 298.343C638.466 299.665 637.129 307.584 639.914 313.887C642.699 320.19 645.792 324.906 648.129 325.765C650.466 326.625 665.294 321.659 677.323 320.484C689.352 319.308 702.41 309.781 702.41 309.781C702.41 309.781 716.79 304.638 719.31 295.992C721.831 287.346 716.268 239.825 716.268 239.825C716.268 239.825 711.977 217.713 700.102 223.693Z" fill="white"/>
<path opacity="0.1" d="M699.801 294.111C699.801 294.111 688.779 291.907 692.615 295.58C696.45 299.253 696.428 302.471 701.124 302.324C705.819 302.177 699.801 294.111 699.801 294.111Z" fill="black"/>
<path opacity="0.1" d="M718.429 373.14C718.429 373.14 713.447 376.511 722.977 384.284C732.508 392.056 718.429 373.14 718.429 373.14Z" fill="black"/>
<path opacity="0.1" d="M708.92 400.856C708.92 401.297 707.157 417.017 713.755 420.947C720.354 424.877 708.92 400.856 708.92 400.856Z" fill="black"/>
<path d="M604.15 277.649C598.83 277.833 587.338 279.456 593.297 290.571C598.566 300.407 607.42 293.832 612.402 288.844C611.187 284.194 608.233 280.187 604.15 277.649Z" fill="#FFB0B1"/>
<path opacity="0.1" d="M698.339 209.632C692.695 213.489 687.963 216.743 687.037 217.419C684.51 219.292 679.689 230.289 676.581 235.902C674.105 240.419 666.058 241.58 663.024 241.867L663.413 238.51C670.313 235.424 675.596 225.595 675.596 225.595L689.234 201.691L693.93 205.959C693.93 205.959 695.693 207.429 698.339 209.632Z" fill="black"/>
<path d="M698.339 209.192C692.695 213.049 687.963 216.303 687.037 216.986C684.51 218.852 679.689 229.849 676.581 235.461C674.105 239.979 666.058 241.14 663.024 241.426L663.413 238.069C670.313 234.984 675.596 225.155 675.596 225.155L689.234 201.251L693.93 205.504C693.93 205.504 695.693 206.959 698.339 209.192Z" fill="#DCE7FF"/>
<path d="M687.478 190.474C687.481 194.884 686.144 199.191 683.642 202.823C680.689 207.118 676.293 210.212 671.252 211.543C666.212 212.875 660.861 212.356 656.17 210.081C651.479 207.806 647.76 203.925 645.687 199.143C643.613 194.361 643.323 188.994 644.869 184.017C646.416 179.039 649.695 174.781 654.114 172.014C658.532 169.247 663.796 168.155 668.95 168.936C674.105 169.717 678.809 172.32 682.208 176.272C685.608 180.223 687.477 185.262 687.478 190.474Z" fill="#FFB0B1"/>
<path opacity="0.1" d="M725.512 263.75C722.528 261.915 720.098 259.305 718.48 256.199C717.253 253.774 716.437 250.976 714.343 249.257C712.455 247.714 709.934 247.339 707.583 246.649C699.853 244.364 693.371 237.312 693.129 229.261C693.011 225.47 694.194 221.687 693.658 217.933C693.353 215.809 692.508 213.798 691.204 212.093C690.556 211.278 689.846 210.514 689.08 209.809C688.051 208.839 686.971 207.899 686.031 206.87C685.438 206.233 684.92 205.531 684.488 204.777C684.138 204.159 683.855 203.507 683.642 202.83C682.173 198.334 683.51 193.001 681.894 188.454L681.805 188.204C681.196 186.588 679.954 184.972 678.227 184.847C676.5 184.722 675.023 186.155 673.377 186.794C669.931 188.131 666.213 185.853 663.34 183.532C660.466 181.211 657.226 178.559 653.574 179.073C651.156 179.418 649.246 181.064 647.019 181.916C646.517 182.11 645.998 182.26 645.469 182.364C647.353 177.666 650.815 173.771 655.26 171.348C659.705 168.925 664.855 168.125 669.826 169.085C674.796 170.046 679.277 172.707 682.499 176.611C685.72 180.516 687.481 185.42 687.478 190.481C687.481 192.01 687.321 193.534 687.001 195.029C687.037 195.131 687.074 195.227 687.118 195.33C687.971 197.533 688.933 199.796 689.778 201.75L693.93 205.511C693.93 205.511 695.693 206.98 698.339 209.184C704.092 214.033 714.034 222.569 719.163 227.792C723.675 232.405 725.086 250.285 725.512 263.75Z" fill="black"/>
<path d="M646.762 168.495C647.813 166.357 648.335 163.963 649.591 161.935C651.436 158.997 654.654 157.116 657.961 155.978C666.595 153.002 684.84 148.683 690.293 155.978C691.365 157.447 692.255 159.078 693.739 160.091C694.87 160.863 696.237 161.193 697.479 161.774C700.955 163.404 703.174 166.96 704.357 170.589C705.54 174.218 705.893 178.111 706.76 181.85C707.869 186.647 709.817 191.194 711.756 195.712C714.042 201.045 716.467 206.577 720.876 210.345C726.894 215.487 728.224 222.767 733.808 228.409C740.422 235.109 740.208 246.164 736.799 254.943C736.351 256.096 735.844 257.301 736.02 258.528C736.196 259.754 737.108 260.871 737.967 261.848L741.583 265.925C733.029 267.989 723.352 263.523 719.369 255.685C718.142 253.26 717.326 250.469 715.225 248.743C713.344 247.2 710.816 246.833 708.472 246.142C700.742 243.85 694.261 236.791 694.018 228.74C693.9 224.956 695.084 221.173 694.547 217.427C694.249 215.288 693.401 213.263 692.086 211.55C690.065 208.913 687.015 207.142 685.369 204.204C682.584 199.289 684.701 192.906 682.695 187.631C682.077 186.015 680.843 184.399 679.116 184.274C677.389 184.149 675.912 185.582 674.259 186.221C670.82 187.558 667.102 185.288 664.229 182.959C661.356 180.631 658.115 177.986 654.456 178.508C652.038 178.846 650.135 180.491 647.908 181.351C646.262 181.982 642.926 182.548 641.486 181.16C638.444 178.361 645.491 171.11 646.762 168.495Z" fill="#591D4B"/>
<path opacity="0.1" d="M721.412 253.26C720.178 250.836 719.369 248.045 717.268 246.326C715.386 244.783 712.859 244.409 710.507 243.718C702.784 241.433 696.303 234.374 696.054 226.323C695.936 222.54 697.119 218.749 696.59 215.003C696.282 212.878 695.435 210.867 694.128 209.162C692.1 206.525 689.051 204.755 687.412 201.816C684.627 196.909 686.743 190.526 684.73 185.244C684.12 183.635 682.878 182.019 681.159 181.887C679.439 181.755 677.948 183.202 676.302 183.841C672.863 185.178 669.137 182.901 666.271 180.579C663.406 178.258 660.15 175.606 656.498 176.12C654.081 176.465 652.17 178.111 649.951 178.963C648.305 179.595 644.962 180.168 643.522 178.779C640.494 175.841 647.541 168.605 648.805 166.005C649.856 163.86 650.377 161.472 651.641 159.445C651.707 159.335 651.781 159.224 651.854 159.114C650.909 159.897 650.093 160.824 649.437 161.862C648.18 163.889 647.659 166.269 646.608 168.422C645.337 171.022 638.29 178.28 641.325 181.196C642.794 182.592 646.101 182.019 647.747 181.387C649.951 180.528 651.876 178.882 654.294 178.544C657.968 178.023 661.201 180.675 664.067 182.996C666.933 185.317 670.68 187.595 674.105 186.258C675.751 185.619 677.191 184.179 678.954 184.311C680.718 184.443 681.894 186.052 682.533 187.668C684.539 192.943 682.423 199.326 685.208 204.241C686.854 207.128 689.903 208.935 691.924 211.587C693.239 213.3 694.087 215.325 694.385 217.463C694.922 221.21 693.739 224.993 693.856 228.776C694.099 236.857 700.58 243.887 708.31 246.179C710.64 246.869 713.182 247.237 715.063 248.779C717.172 250.506 718.002 253.297 719.208 255.721C723.19 263.56 732.868 268.026 741.421 265.962L739.716 264.037C732.302 264.147 724.799 259.931 721.412 253.26Z" fill="black"/>
<path opacity="0.1" d="M670.754 219.733C669.791 221.203 667.036 228.725 664.736 235.292C662.583 234.455 660.628 229.114 660.628 229.114L672.106 212.792C673.282 214.408 672.51 217.089 670.754 219.733Z" fill="black"/>
<path d="M671.195 219.293C670.232 220.762 667.477 228.284 665.177 234.851C663.024 234.021 661.069 228.673 661.069 228.673L672.547 212.358C673.722 213.967 672.951 216.655 671.195 219.293Z" fill="#DCE7FF"/>
<path d="M604.459 294.339L598.095 274.277C598.02 274.042 597.992 273.795 598.012 273.549C598.033 273.303 598.102 273.064 598.215 272.845C598.329 272.626 598.484 272.431 598.673 272.272C598.862 272.113 599.08 271.993 599.315 271.919C599.789 271.771 600.302 271.816 600.742 272.045C601.182 272.273 601.515 272.666 601.667 273.138L608.03 293.178L607.398 297.373L604.459 294.339Z" fill="#BE8B87"/>
<path opacity="0.1" d="M598.698 272.514C599.172 272.364 599.687 272.408 600.129 272.637C600.571 272.866 600.905 273.26 601.057 273.734L607.42 293.774L606.942 296.918L607.405 297.403L608.037 293.208L601.637 273.168C601.485 272.696 601.153 272.303 600.713 272.075C600.272 271.846 599.759 271.801 599.286 271.949C598.887 272.078 598.543 272.336 598.308 272.683C598.433 272.616 598.564 272.56 598.698 272.514Z" fill="white"/>
<path d="M604.459 294.339L608.03 293.208L607.508 296.646L607.398 297.403L606.355 296.315L604.459 294.339Z" fill="#EFC8C4"/>
<path d="M606.355 296.315C606.417 296.237 606.494 296.172 606.582 296.124C606.634 296.092 606.694 296.074 606.755 296.074C606.816 296.074 606.876 296.092 606.928 296.124C606.978 296.185 607.02 296.251 607.053 296.323C607.101 296.404 607.167 296.473 607.246 296.525C607.325 296.577 607.415 296.611 607.508 296.624L607.398 297.358L606.355 296.315Z" fill="#727A9C"/>
<path d="M598.059 281.403C598.059 281.403 610.822 281.329 607.817 286.758C604.812 292.187 600.116 292.841 600.116 292.841L598.059 281.403Z" fill="#FFB0B1"/>
<path d="M518.677 37.7729H518.125C496.199 37.7729 476.807 49.3723 465.652 66.4884C454.498 49.3723 435.106 37.7729 413.179 37.7729H412.628C396.173 37.9297 380.444 44.5724 368.86 56.2575C357.276 67.9425 350.773 83.7257 350.764 100.177C350.764 120.606 359.714 149.594 377.166 173.446C410.416 218.896 465.652 258.66 465.652 258.66C465.652 258.66 520.888 218.903 554.131 173.446C571.591 149.594 580.533 120.606 580.533 100.177C580.524 83.727 574.022 67.9449 562.44 56.26C550.858 44.5752 535.131 37.9316 518.677 37.7729ZM510.792 176.943C508.295 176.933 505.859 176.169 503.804 174.751C501.749 173.332 500.171 171.326 499.277 168.994H486.168C485.305 168.989 484.465 168.714 483.766 168.209C483.066 167.703 482.542 166.991 482.266 166.174L478.24 154.045L465.498 198.555C465.25 199.411 464.73 200.165 464.018 200.701C463.305 201.238 462.437 201.528 461.545 201.53H461.287C460.356 201.485 459.469 201.122 458.774 200.501C458.078 199.881 457.617 199.041 457.466 198.121L444.335 119.167L434.739 165.887C434.519 166.775 434.008 167.563 433.287 168.126C432.566 168.689 431.678 168.995 430.763 168.994H412.297C411.744 169.018 411.191 168.929 410.673 168.733C410.155 168.538 409.681 168.239 409.281 167.856C408.881 167.473 408.563 167.013 408.346 166.503C408.128 165.994 408.016 165.446 408.016 164.892C408.016 164.338 408.128 163.79 408.346 163.28C408.563 162.771 408.881 162.31 409.281 161.927C409.681 161.544 410.155 161.245 410.673 161.05C411.191 160.854 411.744 160.765 412.297 160.789H427.53L441.124 97.9733C441.347 97.0446 441.886 96.2222 442.649 95.6468C443.411 95.0713 444.35 94.7785 445.305 94.8184C446.259 94.8583 447.17 95.2285 447.882 95.8656C448.594 96.5027 449.062 97.3672 449.207 98.3113L462.617 178.853L474.037 139.03C474.274 138.191 474.777 137.452 475.47 136.922C476.162 136.393 477.008 136.101 477.88 136.092H477.96C478.824 136.092 479.665 136.365 480.365 136.871C481.064 137.378 481.586 138.092 481.855 138.913L489.137 160.811H499.116C499.825 158.656 501.116 156.739 502.847 155.272C504.577 153.804 506.68 152.843 508.922 152.494C511.164 152.146 513.459 152.424 515.554 153.297C517.648 154.17 519.461 155.605 520.791 157.442C522.121 159.28 522.918 161.45 523.093 163.712C523.268 165.974 522.814 168.24 521.782 170.26C520.75 172.28 519.179 173.976 517.244 175.161C515.308 176.345 513.083 176.972 510.814 176.972L510.792 176.943Z" fill="#41B8D5"/>
</g>
<defs>
<linearGradient id="paint0_linear_607_355" x1="261.837" y1="569.219" x2="261.837" y2="117.191" gradientUnits="userSpaceOnUse">
<stop stop-color="#808080" stop-opacity="0.25"/>
<stop offset="0.54" stop-color="#808080" stop-opacity="0.12"/>
<stop offset="1" stop-color="#808080" stop-opacity="0.1"/>
</linearGradient>
<linearGradient id="paint1_linear_607_355" x1="656.506" y1="563.504" x2="656.506" y2="150.659" gradientUnits="userSpaceOnUse">
<stop stop-color="#808080" stop-opacity="0.25"/>
<stop offset="0.54" stop-color="#808080" stop-opacity="0.12"/>
<stop offset="1" stop-color="#808080" stop-opacity="0.1"/>
</linearGradient>
<clipPath id="clip0_607_355">
<rect width="812" height="575" fill="white"/>
</clipPath>
</defs>
</svg>
