<svg width="674" height="569" viewBox="0 0 674 569" fill="none" xmlns="http://www.w3.org/2000/svg">
<g clip-path="url(#clip0_606_10)">
<path d="M0 563.237C0 564.068 0.680889 564.735 1.52877 564.735H672.471C673.319 564.735 674 564.068 674 563.237C674 562.407 673.319 561.74 672.471 561.74H1.52877C0.680879 561.74 0 562.407 0 563.237Z" fill="#3F3C57"/>
<path d="M218.909 60.4702L226.205 93.0853L210.686 138.482L185.683 89.7069L189.152 61.4102L218.909 60.4702Z" fill="#FDB4B4"/>
<path d="M227.561 91.396H184.389V142.494H227.561V91.396Z" fill="#41B8D5"/>
<path d="M209.808 76.8989C226.091 76.8989 239.291 63.9682 239.291 48.0173C239.291 32.0665 226.091 19.1357 209.808 19.1357C193.525 19.1357 180.325 32.0665 180.325 48.0173C180.325 63.9682 193.525 76.8989 209.808 76.8989Z" fill="#FDB4B4"/>
<path d="M184.144 69.4939C184.144 69.4939 162.167 29.7345 181.982 10.6013C201.797 -8.53191 217.703 4.07569 217.703 4.07569L226.786 3.71609C226.786 3.71609 228.681 10.7185 231.735 6.92779C234.79 3.1371 240.31 16.9423 240.31 16.9423C250.555 35.0165 215.039 39.0655 215.039 39.0655C215.039 39.0655 217.604 47.0682 214.997 48.7441C212.39 50.4201 205.426 56.7247 205.426 56.7247L199.192 61.3368L195.487 55.8075C195.487 55.8075 191.617 52.8152 189.662 54.0722C187.707 55.3292 190.397 71.8677 190.397 71.8677L184.144 69.4939Z" fill="#2E2E41"/>
<path d="M148.775 361.997L137.503 526.71L165.214 527.63L201.848 363.377L148.775 361.997Z" fill="#2E2E41"/>
<path d="M215.938 361.077L204.666 525.789L232.377 526.709L269.011 362.457L215.938 361.077Z" fill="#2E2E41"/>
<path d="M141.988 399.629L156.739 220.234L134.117 126.819C132.166 112.932 141.098 99.793 154.883 96.2103L177.019 90.4572L186.817 80.8589L209.103 129.069L223.021 80.8957L233.876 88.6291L266.07 102.543L266.056 102.869L260.892 215.714L272.419 398.032L271.908 398.038L141.988 399.629Z" fill="#E8E9EA"/>
<path d="M230.598 524.838L238.622 548.302C238.622 548.302 270.013 552.483 270.501 562.003C270.989 571.523 227.839 566.012 202.572 567.256C177.305 568.5 198.338 541.696 198.338 541.696L201.031 526.294L230.598 524.838Z" fill="#2E2E41"/>
<path d="M165.072 523.148L173.095 546.613C173.095 546.613 204.486 550.794 204.975 560.313C205.463 569.833 162.313 564.323 137.046 565.567C111.779 566.811 132.812 540.007 132.812 540.007L135.504 524.604L165.072 523.148Z" fill="#2E2E41"/>
<path d="M125.925 304.354C125.585 299.728 126.381 295.089 128.246 290.826L122.258 242.704L145.716 240.582L149.264 289.625C151.622 293.646 152.962 298.161 153.172 302.794C153.862 314.381 148.322 324.119 140.797 324.549C133.272 324.979 126.613 315.938 125.925 304.354Z" fill="#FDB4B4"/>
<path d="M274.503 311.418C274.214 306.788 275.061 302.158 276.974 297.915L271.522 249.732L295.002 247.861L298.004 296.938C300.317 300.984 301.607 305.514 301.766 310.148C302.327 321.742 296.679 331.42 289.149 331.77C281.62 332.12 275.062 323.008 274.503 311.418Z" fill="#FDB4B4"/>
<path d="M122.161 285.056L122.082 284.641L109.856 220.383L124.302 115.745C125.591 106.403 134.107 99.6739 143.709 100.426C148.724 100.819 153.223 103.149 156.38 106.987C159.535 110.826 160.901 115.629 160.224 120.513L149.352 198.989L156.197 282.927L122.161 285.056Z" fill="#E8E9EA"/>
<path d="M267.258 283.548L242.678 122.822C241.4 118.109 242.148 113.177 244.794 108.986C247.441 104.795 251.611 101.937 256.538 100.939C265.964 99.029 275.271 104.673 277.732 113.786L301.345 281.529L267.258 283.548Z" fill="#E8E9EA"/>
<path d="M209.824 143.761C211.49 143.761 212.841 142.438 212.841 140.805C212.841 139.173 211.49 137.849 209.824 137.849C208.157 137.849 206.806 139.173 206.806 140.805C206.806 142.438 208.157 143.761 209.824 143.761Z" fill="#D6D7D8"/>
<path d="M209.824 166.143C211.49 166.143 212.841 164.82 212.841 163.187C212.841 161.554 211.49 160.231 209.824 160.231C208.157 160.231 206.806 161.554 206.806 163.187C206.806 164.82 208.157 166.143 209.824 166.143Z" fill="#D6D7D8"/>
<path d="M209.824 188.524C211.49 188.524 212.841 187.201 212.841 185.568C212.841 183.936 211.49 182.612 209.824 182.612C208.157 182.612 206.806 183.936 206.806 185.568C206.806 187.201 208.157 188.524 209.824 188.524Z" fill="#D6D7D8"/>
<path d="M209.824 210.906C211.49 210.906 212.841 209.583 212.841 207.95C212.841 206.318 211.49 204.994 209.824 204.994C208.157 204.994 206.806 206.318 206.806 207.95C206.806 209.583 208.157 210.906 209.824 210.906Z" fill="#D6D7D8"/>
<path d="M209.824 233.288C211.49 233.288 212.841 231.965 212.841 230.332C212.841 228.699 211.49 227.376 209.824 227.376C208.157 227.376 206.806 228.699 206.806 230.332C206.806 231.965 208.157 233.288 209.824 233.288Z" fill="#D6D7D8"/>
<path d="M209.824 255.67C211.49 255.67 212.841 254.346 212.841 252.714C212.841 251.081 211.49 249.758 209.824 249.758C208.157 249.758 206.806 251.081 206.806 252.714C206.806 254.346 208.157 255.67 209.824 255.67Z" fill="#D6D7D8"/>
<path d="M209.824 278.052C211.49 278.052 212.841 276.728 212.841 275.096C212.841 273.463 211.49 272.14 209.824 272.14C208.157 272.14 206.806 273.463 206.806 275.096C206.806 276.728 208.157 278.052 209.824 278.052Z" fill="#D6D7D8"/>
<path d="M209.824 300.434C211.49 300.434 212.841 299.11 212.841 297.478C212.841 295.845 211.49 294.521 209.824 294.521C208.157 294.521 206.806 295.845 206.806 297.478C206.806 299.11 208.157 300.434 209.824 300.434Z" fill="#D6D7D8"/>
<path d="M209.827 317.747L152.73 310.293L151.63 310.15L122.449 244.238L105.071 204.996H150.336L209.827 317.747Z" fill="#41B8D5"/>
<path d="M438.758 67.6411L475.059 48.1602V103.82H433.076L438.758 67.6411Z" fill="#2E2E41"/>
<path d="M482.842 80.0508L486.192 107.377L462.047 154.478L447.06 110.639L454.106 79.1431L482.842 80.0508Z" fill="#FDB4B4"/>
<path d="M487.441 109.008H445.751V158.352H487.441V109.008Z" fill="#41B8D5"/>
<path d="M521.834 370.323L532.719 529.384L505.959 530.272L470.582 371.656L521.834 370.323Z" fill="#2E2E41"/>
<path d="M456.975 369.435L467.86 528.495L441.1 529.384L405.723 370.768L456.975 369.435Z" fill="#2E2E41"/>
<path d="M550.106 404.059L549.468 404.057L378.995 403.512L379.148 402.92L422.976 232.815L411.997 146.969C409.917 130.702 418.806 115.327 434.117 108.71L439.645 106.321L450.146 98.8405L463.579 145.34L485.091 98.8042L494.568 108.086L515.939 113.641C529.261 117.103 537.891 129.799 536.014 143.173L535.991 143.266L503.354 234.494L550.106 404.059Z" fill="#E8E9EA"/>
<path d="M442.818 527.576L471.371 528.982L473.971 543.856C473.971 543.856 494.282 569.74 469.883 568.539C445.483 567.338 403.813 572.659 404.285 563.466C404.756 554.273 435.07 550.236 435.07 550.236L442.818 527.576Z" fill="#2E2E41"/>
<path d="M506.096 525.945L534.649 527.351L537.249 542.225C537.249 542.225 557.56 568.109 533.16 566.908C508.76 565.707 467.091 571.028 467.563 561.835C468.034 552.642 498.348 548.605 498.348 548.605L506.096 525.945Z" fill="#2E2E41"/>
<path d="M532.243 313.027C531.579 324.213 525.148 332.944 517.882 332.528C510.615 332.113 505.264 322.709 505.931 311.52C506.134 307.046 507.428 302.686 509.705 298.803L513.131 251.443L535.784 253.492L530.002 299.963C531.803 304.079 532.572 308.559 532.243 313.027Z" fill="#FDB4B4"/>
<path d="M415.831 308.774C414.923 319.943 408.305 328.538 401.049 327.971C393.792 327.405 388.648 317.891 389.557 306.718C389.858 302.25 391.246 297.917 393.607 294.083L398.061 246.805L420.665 249.326L413.873 295.666C415.585 299.819 416.256 304.314 415.831 308.774Z" fill="#FDB4B4"/>
<path d="M535.891 294.408L502.992 292.351L503.032 291.868L509.603 211.278L499.105 135.496C498.451 130.775 499.771 126.132 502.821 122.423C505.871 118.712 510.22 116.46 515.068 116.08C524.35 115.363 532.58 121.858 533.827 130.888L547.777 231.937L547.763 232.012L535.891 294.408Z" fill="#E8E9EA"/>
<path d="M421.308 291.32L388.356 289.369L388.429 288.859L411.151 127.42C413.541 118.553 422.542 113.099 431.649 114.944C436.411 115.909 440.442 118.671 443 122.723C445.558 126.774 446.281 131.541 445.036 136.146L421.308 291.32Z" fill="#E8E9EA"/>
<path d="M462.879 159.576C464.489 159.576 465.794 158.297 465.794 156.721C465.794 155.144 464.489 153.866 462.879 153.866C461.27 153.866 459.965 155.144 459.965 156.721C459.965 158.297 461.27 159.576 462.879 159.576Z" fill="#D6D7D8"/>
<path d="M462.879 181.19C464.489 181.19 465.794 179.912 465.794 178.335C465.794 176.759 464.489 175.48 462.879 175.48C461.27 175.48 459.965 176.759 459.965 178.335C459.965 179.912 461.27 181.19 462.879 181.19Z" fill="#D6D7D8"/>
<path d="M462.879 202.804C464.489 202.804 465.794 201.525 465.794 199.949C465.794 198.372 464.489 197.094 462.879 197.094C461.27 197.094 459.965 198.372 459.965 199.949C459.965 201.525 461.27 202.804 462.879 202.804Z" fill="#D6D7D8"/>
<path d="M462.879 224.417C464.489 224.417 465.794 223.139 465.794 221.563C465.794 219.986 464.489 218.708 462.879 218.708C461.27 218.708 459.965 219.986 459.965 221.563C459.965 223.139 461.27 224.417 462.879 224.417Z" fill="#D6D7D8"/>
<path d="M462.879 246.031C464.489 246.031 465.794 244.753 465.794 243.176C465.794 241.6 464.489 240.322 462.879 240.322C461.27 240.322 459.965 241.6 459.965 243.176C459.965 244.753 461.27 246.031 462.879 246.031Z" fill="#D6D7D8"/>
<path d="M462.879 267.645C464.489 267.645 465.794 266.367 465.794 264.79C465.794 263.214 464.489 261.936 462.879 261.936C461.27 261.936 459.965 263.214 459.965 264.79C459.965 266.367 461.27 267.645 462.879 267.645Z" fill="#D6D7D8"/>
<path d="M462.879 289.259C464.489 289.259 465.794 287.981 465.794 286.404C465.794 284.827 464.489 283.549 462.879 283.549C461.27 283.549 459.965 284.827 459.965 286.404C459.965 287.981 461.27 289.259 462.879 289.259Z" fill="#D6D7D8"/>
<path d="M462.879 310.872C464.489 310.872 465.794 309.594 465.794 308.018C465.794 306.441 464.489 305.163 462.879 305.163C461.27 305.163 459.965 306.441 459.965 308.018C459.965 309.594 461.27 310.872 462.879 310.872Z" fill="#D6D7D8"/>
<path d="M467.304 93.9967C482.357 93.9967 494.561 82.0423 494.561 67.2957C494.561 52.5492 482.357 40.5947 467.304 40.5947C452.25 40.5947 440.046 52.5492 440.046 67.2957C440.046 82.0423 452.25 93.9967 467.304 93.9967Z" fill="#FDB4B4"/>
<path d="M481.588 36.1256C482.894 38.7278 480.823 41.9783 478.081 43.0723C475.34 44.1664 472.243 43.7231 469.32 43.2677C466.396 42.8123 463.295 42.3805 460.562 43.4939C457.025 44.9345 455.032 48.5483 453.314 51.9018C450.107 58.1622 446.9 64.4226 443.693 70.6831C442.126 73.7418 440.524 76.938 440.494 80.3601C440.438 86.6416 445.525 91.6616 448.262 97.3425C451.594 104.259 451.32 112.736 447.546 119.431C443.772 126.127 436.596 130.871 428.846 131.794C426.806 132.037 424.648 132.01 422.815 131.103C420.981 130.195 419.582 128.213 419.921 126.229C420.586 122.347 426.641 121.44 427.753 117.658C428.333 115.683 427.305 113.575 425.919 112.033C424.533 110.491 422.78 109.288 421.458 107.693C418.41 104.015 418.207 98.3366 420.985 94.4585C422.618 92.1793 425.143 90.486 426.198 87.9006C427.097 85.697 426.771 83.2199 426.43 80.8703C425.992 77.851 425.555 74.8317 425.117 71.8125C424.606 68.2899 424.103 64.641 425.113 61.2231C427.425 53.3908 436.453 49.7123 441.748 43.421C444.208 40.4975 445.863 36.9816 448.387 34.1107C452.623 29.293 459.291 26.6352 465.757 27.1877C472.223 27.7402 478.321 31.4887 481.641 36.952" fill="#2E2E41"/>
<path d="M477.285 36.6196C475.953 37.0861 475.459 38.7852 475.842 40.1188C476.225 41.4523 477.229 42.5119 478.148 43.5651C488.539 55.4776 490.954 73.4963 484.055 87.6327C482.219 91.3928 479.775 94.9316 478.785 98.985C478.065 101.934 478.103 105.17 476.433 107.723C474.733 110.322 471.363 112.064 471.03 115.134C470.816 117.105 472.042 119.018 473.685 120.173C475.328 121.328 477.336 121.857 479.31 122.288C484.441 123.408 489.688 124.019 494.944 124.11C496.658 124.14 498.426 124.103 499.998 123.434C501.57 122.765 502.912 121.315 502.93 119.636C502.944 118.317 502.167 117.099 502.068 115.783C501.771 111.84 507.187 109.743 508.243 105.926C508.936 103.417 507.569 100.835 506.113 98.6623C504.657 96.4892 502.995 94.2073 503.031 91.6081C503.066 89.1199 504.66 86.9285 505.279 84.5152C506.136 81.177 505.083 77.6853 504.039 74.3987C503.151 71.6045 502.264 68.8103 501.376 66.0161C500.432 63.0457 499.489 60.0754 498.545 57.1051C496.897 51.9195 495.168 46.5836 491.603 42.4245C488.038 38.2654 482.13 35.5394 476.864 37.2375" fill="#2E2E41"/>
<path d="M495.858 140.086L493.99 139.553C497.882 126.48 489.489 102.083 489.405 101.838L491.246 101.223C491.603 102.247 499.921 126.44 495.858 140.086Z" fill="#3F3C57"/>
<path d="M494.924 155.102C499.413 155.102 503.053 151.537 503.053 147.139C503.053 142.741 499.413 139.176 494.924 139.176C490.434 139.176 486.795 142.741 486.795 147.139C486.795 151.537 490.434 155.102 494.924 155.102Z" fill="#3F3C57"/>
<path d="M441.513 175.33H436.583C436.045 175.33 435.61 174.904 435.61 174.377C435.61 173.851 436.045 173.424 436.583 173.424H441.513C442.871 173.424 444.147 172.906 445.107 171.964C446.066 171.022 446.593 169.771 446.591 168.44L446.531 138.695C446.531 132.233 441.166 126.978 434.571 126.978C427.977 126.978 422.611 132.233 422.611 138.693L422.67 166.535C422.676 169.251 424.937 171.478 427.71 171.499L431.093 171.524C431.63 171.528 432.063 171.958 432.059 172.484C432.055 173.008 431.62 173.43 431.086 173.43H431.078L427.694 173.405C423.859 173.376 420.732 170.296 420.724 166.539L420.665 138.695C420.665 131.182 426.903 125.071 434.571 125.071C442.238 125.071 448.477 131.182 448.477 138.693L448.537 168.437C448.54 170.277 447.812 172.008 446.484 173.31C445.158 174.613 443.391 175.33 441.513 175.33Z" fill="#3F3C57"/>
<path d="M431.086 175.855C432.991 175.855 434.535 174.343 434.535 172.477C434.535 170.611 432.991 169.099 431.086 169.099C429.181 169.099 427.637 170.611 427.637 172.477C427.637 174.343 429.181 175.855 431.086 175.855Z" fill="#3F3C57"/>
<path d="M436.583 177.756C438.487 177.756 440.031 176.243 440.031 174.377C440.031 172.512 438.487 170.999 436.583 170.999C434.678 170.999 433.134 172.512 433.134 174.377C433.134 176.243 434.678 177.756 436.583 177.756Z" fill="#3F3C57"/>
<path d="M237.489 125.798L235.621 125.265C239.513 112.192 231.215 87.4177 231.13 87.1729L233.465 88.8972C233.822 89.9207 241.552 112.153 237.489 125.798Z" fill="#3F3C57"/>
<path d="M171.819 128.121L173.687 127.587C169.795 114.514 178.188 90.1179 178.272 89.873L176.274 91.1844C175.918 92.2078 167.756 114.475 171.819 128.121Z" fill="#3F3C57"/>
<path d="M236.555 140.814C241.044 140.814 244.684 137.249 244.684 132.851C244.684 128.453 241.044 124.888 236.555 124.888C232.066 124.888 228.426 128.453 228.426 132.851C228.426 137.249 232.066 140.814 236.555 140.814Z" fill="#3F3C57"/>
<path d="M180.485 177.09H175.555C175.018 177.09 174.582 176.663 174.582 176.137C174.582 175.61 175.018 175.183 175.555 175.183H180.485C181.844 175.183 183.12 174.665 184.08 173.723C185.039 172.781 185.566 171.53 185.563 170.2L185.503 140.454C185.503 133.992 180.138 128.737 173.544 128.737C166.949 128.737 161.583 133.992 161.583 140.452L161.643 168.294C161.649 171.01 163.909 173.237 166.682 173.258L170.066 173.283C170.603 173.287 171.035 173.717 171.031 174.244C171.028 174.767 170.592 175.189 170.058 175.189H170.051L166.667 175.164C162.832 175.135 159.705 172.055 159.697 168.298L159.637 140.454C159.637 132.942 165.875 126.831 173.544 126.831C181.211 126.831 187.449 132.942 187.449 140.452L187.509 170.196C187.513 172.036 186.784 173.767 185.457 175.069C184.13 176.372 182.364 177.09 180.485 177.09Z" fill="#3F3C57"/>
<path d="M170.059 177.615C171.964 177.615 173.508 176.102 173.508 174.236C173.508 172.37 171.964 170.858 170.059 170.858C168.154 170.858 166.61 172.37 166.61 174.236C166.61 176.102 168.154 177.615 170.059 177.615Z" fill="#3F3C57"/>
<path d="M175.555 179.515C177.46 179.515 179.004 178.003 179.004 176.137C179.004 174.271 177.46 172.758 175.555 172.758C173.651 172.758 172.106 174.271 172.106 176.137C172.106 178.003 173.651 179.515 175.555 179.515Z" fill="#3F3C57"/>
</g>
<defs>
<clipPath id="clip0_606_10">
<rect width="674" height="569" fill="white"/>
</clipPath>
</defs>
</svg>
