<svg width="664" height="456" viewBox="0 0 664 456" fill="none" xmlns="http://www.w3.org/2000/svg">
<g clip-path="url(#clip0_610_22)">
<path d="M339.118 455.034C359.089 455.034 375.279 439.257 375.279 419.795C375.279 400.334 359.089 384.557 339.118 384.557C319.147 384.557 302.958 400.334 302.958 419.795C302.958 439.257 319.147 455.034 339.118 455.034Z" fill="#41B8D5"/>
<path d="M555.144 453.054C575.374 447.133 596.881 440.96 612.925 426.885C627.262 414.308 636.941 395.102 631.001 376.24C625.074 357.417 607.32 344.866 588.991 338.623C578.594 335.083 567.718 333.118 556.846 331.575C545.027 329.898 533.156 328.523 521.29 327.201C473.245 321.846 425.02 318.575 376.613 317.387C352.728 316.801 328.847 316.815 304.958 317.153C283.624 317.455 261.155 317.447 241.363 308.611C225.973 301.74 212.004 289.239 207.716 272.811C202.765 253.848 211.896 234.536 224.994 220.802C231.898 213.563 239.967 207.47 248.291 201.867C257.322 195.789 266.667 190.142 276.214 184.87C295.019 174.492 314.678 165.66 334.988 158.466C345.008 154.915 355.176 151.852 365.432 149.027C374.093 146.641 382.78 144.251 391.15 141C407.331 134.716 422.721 124.071 426.835 106.619C430.734 90.079 424.16 72.1234 412.634 59.836C399.299 45.6204 379.194 39.3887 359.918 38.3805C338.278 37.2485 317.136 42.5263 296.797 49.2246C275.103 56.3687 253.877 64.5833 231.725 70.37C209.758 76.1027 187.366 80.1588 164.752 82.5016C153.682 83.6503 142.277 84.9474 131.141 84.068C121.808 83.3309 112.523 80.6562 105.645 74.2015C99.7472 68.667 96.2339 61.0607 97.4417 53.0337C97.6611 51.5758 99.9339 52.1956 99.7158 53.6447C98.2455 63.4158 105.061 72.4195 113.46 77.0316C123.167 82.3621 134.979 82.3693 145.786 81.7597C169.219 80.3805 192.493 77.1018 215.367 71.9576C237.844 66.9549 259.518 59.8032 281.167 52.1636C301.728 44.9079 322.749 37.8264 344.716 36.2548C363.775 34.8912 383.825 37.5971 400.43 47.3037C415.023 55.8344 425.754 70.0609 429.173 86.3861C432.514 102.339 427.887 118.395 415.495 129.528C402.665 141.054 385.072 145.982 368.678 150.52C347.883 156.277 327.535 163.006 307.839 171.742C287.875 180.573 268.728 191.063 250.611 203.095C233.123 214.741 215.865 229.394 210.334 250.17C207.758 259.848 208.233 270.112 212.544 279.253C216.377 287.381 222.69 294.217 230.044 299.491C247.59 312.073 269.705 314.656 290.899 314.913C314.704 315.202 338.509 314.419 362.321 314.8C410.849 315.576 459.277 318.454 507.607 323.435C519.717 324.684 531.812 326.065 543.891 327.577C554.757 328.938 565.658 330.289 576.34 332.706C595.334 337.002 613.817 345.262 625.622 360.956C630.862 367.758 634.108 375.819 635.014 384.279C635.841 393.107 633.623 401.951 629.527 409.804C620.461 427.186 603.481 438.242 585.448 445.506C575.789 449.396 565.77 452.344 555.771 455.27C554.314 455.696 553.692 453.479 555.144 453.054Z" fill="#F2F2F2"/>
<path d="M98.9646 71.6259C109.384 71.6259 117.831 63.3945 117.831 53.2407C117.831 43.0868 109.384 34.8555 98.9646 34.8555C88.5449 34.8555 80.0981 43.0868 80.0981 53.2407C80.0981 63.3945 88.5449 71.6259 98.9646 71.6259Z" fill="#F2F2F2"/>
<path d="M229.85 106.481C240.27 106.481 248.717 98.2495 248.717 88.0956C248.717 77.9418 240.27 69.7104 229.85 69.7104C219.431 69.7104 210.984 77.9418 210.984 88.0956C210.984 98.2495 219.431 106.481 229.85 106.481Z" fill="#F2F2F2"/>
<path d="M340.69 36.7704C351.11 36.7704 359.557 28.5391 359.557 18.3852C359.557 8.23133 351.11 0 340.69 0C330.271 0 321.824 8.23133 321.824 18.3852C321.824 28.5391 330.271 36.7704 340.69 36.7704Z" fill="#F2F2F2"/>
<path d="M409.867 114.908C420.287 114.908 428.734 106.676 428.734 96.5224C428.734 86.3685 420.287 78.1372 409.867 78.1372C399.448 78.1372 391.001 86.3685 391.001 96.5224C391.001 106.676 399.448 114.908 409.867 114.908Z" fill="#F2F2F2"/>
<path d="M316.321 205.301C326.741 205.301 335.188 197.07 335.188 186.916C335.188 176.762 326.741 168.531 316.321 168.531C305.902 168.531 297.455 176.762 297.455 186.916C297.455 197.07 305.902 205.301 316.321 205.301Z" fill="#F2F2F2"/>
<path d="M197.62 248.966C208.04 248.966 216.487 240.735 216.487 230.581C216.487 220.427 208.04 212.196 197.62 212.196C187.2 212.196 178.754 220.427 178.754 230.581C178.754 240.735 187.2 248.966 197.62 248.966Z" fill="#F2F2F2"/>
<path d="M323.396 317.144C333.816 317.144 342.263 308.913 342.263 298.759C342.263 288.605 333.816 280.374 323.396 280.374C312.977 280.374 304.53 288.605 304.53 298.759C304.53 308.913 312.977 317.144 323.396 317.144Z" fill="#F2F2F2"/>
<path d="M458.606 355.447C469.025 355.447 477.472 347.216 477.472 337.062C477.472 326.908 469.025 318.677 458.606 318.677C448.186 318.677 439.739 326.908 439.739 337.062C439.739 347.216 448.186 355.447 458.606 355.447Z" fill="#F2F2F2"/>
<path d="M616.612 347.02C627.031 347.02 635.478 338.789 635.478 328.635C635.478 318.481 627.031 310.25 616.612 310.25C606.192 310.25 597.745 318.481 597.745 328.635C597.745 338.789 606.192 347.02 616.612 347.02Z" fill="#F2F2F2"/>
<path d="M335.245 52.094C278.731 52.483 232.457 97.2372 231.654 152.306C231.647 152.814 231.644 156.389 231.644 161.065C231.644 167.921 234.439 174.496 239.414 179.343C244.388 184.191 251.135 186.915 258.17 186.916C261.658 186.915 265.111 186.245 268.332 184.943C271.554 183.641 274.48 181.734 276.945 179.33C279.41 176.925 281.364 174.071 282.696 170.93C284.029 167.79 284.713 164.424 284.71 161.025C284.707 157.845 284.706 155.643 284.706 155.508C284.704 146.997 286.975 138.633 291.297 131.237C295.619 123.841 301.842 117.669 309.354 113.328C316.866 108.987 325.408 106.626 334.14 106.478C342.872 106.33 351.494 108.399 359.156 112.483C366.819 116.566 373.259 122.524 377.842 129.768C382.425 137.013 384.995 145.295 385.297 153.801C385.599 162.307 383.624 170.742 379.566 178.279C375.508 185.815 369.507 192.192 362.152 196.782L362.162 196.793C362.162 196.793 324.407 220.479 312.896 252.972L312.906 252.974C310.882 259.631 309.856 266.537 309.861 273.48C309.861 276.334 310.033 301.304 310.366 321.571C310.482 328.563 313.415 335.231 318.531 340.136C323.648 345.04 330.538 347.788 337.714 347.787C341.321 347.786 344.891 347.091 348.221 345.741C351.55 344.392 354.573 342.413 357.115 339.921C359.657 337.428 361.668 334.47 363.033 331.217C364.397 327.965 365.088 324.481 365.066 320.967C364.95 302.406 364.888 280.794 364.888 279.225C364.888 259.274 384.639 239.395 400.863 226.431C419.545 211.503 432.989 191.16 438.389 168.212C439.584 163.487 440.243 158.649 440.354 153.784C440.354 140.368 437.629 127.084 432.338 114.699C427.046 102.313 419.292 91.0697 409.522 81.6173C399.751 72.1648 388.158 64.6898 375.411 59.6228C362.663 54.5558 349.012 51.997 335.245 52.094Z" fill="#41B8D5"/>
<path d="M663.064 456H0.935976C0.688204 455.999 0.450831 455.903 0.275882 455.732C0.100934 455.561 0.00268555 455.329 0.00268555 455.088C0.00268555 454.846 0.100934 454.615 0.275882 454.444C0.450831 454.273 0.688204 454.176 0.935976 454.176H663.064C663.312 454.176 663.55 454.272 663.726 454.443C663.901 454.614 664 454.846 664 455.088C664 455.33 663.901 455.562 663.726 455.733C663.55 455.904 663.312 456 663.064 456Z" fill="#3F3D56"/>
<path d="M494.024 209.129C507.049 209.129 517.607 198.839 517.607 186.147C517.607 173.455 507.049 163.166 494.024 163.166C481 163.166 470.441 173.455 470.441 186.147C470.441 198.839 481 209.129 494.024 209.129Z" fill="#2F2E41"/>
<path d="M450.445 445.94H440.808L436.223 409.715H450.448L450.445 445.94Z" fill="#A0616A"/>
<path d="M433.924 443.256H452.511V454.66H422.222C422.222 453.162 422.524 451.679 423.112 450.296C423.701 448.912 424.563 447.655 425.649 446.596C426.736 445.537 428.026 444.697 429.446 444.124C430.866 443.551 432.387 443.256 433.924 443.256Z" fill="#2F2E41"/>
<path d="M525.125 445.94H515.488L510.903 409.715H525.127L525.125 445.94Z" fill="#A0616A"/>
<path d="M508.604 443.256H527.19V454.66H496.901C496.901 453.162 497.204 451.679 497.792 450.296C498.38 448.912 499.242 447.655 500.329 446.596C501.415 445.537 502.705 444.697 504.125 444.124C505.545 443.551 507.067 443.256 508.604 443.256Z" fill="#2F2E41"/>
<path d="M490.44 209.263C501.103 209.263 509.748 200.839 509.748 190.448C509.748 180.057 501.103 171.633 490.44 171.633C479.777 171.633 471.133 180.057 471.133 190.448C471.133 200.839 479.777 209.263 490.44 209.263Z" fill="#A0616A"/>
<path d="M501.948 269.96L510.587 250.618C512.685 246.08 513.287 241.02 512.308 236.135C511.33 231.25 508.819 226.782 505.124 223.346C504.365 222.615 503.559 221.932 502.71 221.301C498.448 218.051 493.195 216.28 487.783 216.268C484.144 216.282 480.551 217.06 477.249 218.551C476.966 218.673 476.691 218.804 476.408 218.934C475.865 219.187 475.331 219.463 474.812 219.746C471.428 221.64 468.548 224.282 466.404 227.459C464.26 230.637 462.912 234.261 462.47 238.039L458.657 269.171C457.699 271.615 423.487 359.864 435.452 427.238C435.579 427.958 435.939 428.619 436.48 429.124C437.02 429.63 437.712 429.954 438.455 430.05L450.584 431.658C451.47 431.776 452.369 431.563 453.1 431.061C453.83 430.56 454.339 429.807 454.523 428.954L474.875 334.416C475.002 333.829 475.327 333.3 475.799 332.913C476.27 332.527 476.861 332.307 477.477 332.286C478.092 332.266 478.697 332.447 479.194 332.802C479.692 333.156 480.053 333.662 480.22 334.24L508.976 433.658C509.181 434.38 509.623 435.017 510.235 435.471C510.847 435.925 511.595 436.17 512.364 436.17C512.593 436.169 512.822 436.148 513.048 436.109L527.866 433.328C528.727 433.171 529.497 432.707 530.025 432.025C530.553 431.343 530.801 430.494 530.72 429.644C528.542 405.98 516.97 287.449 501.948 269.96Z" fill="#2F2E41"/>
<path d="M415.407 206.106C415.273 207.224 415.392 208.358 415.756 209.427C416.12 210.495 416.721 211.473 417.515 212.292C418.309 213.11 419.277 213.749 420.352 214.163C421.426 214.577 422.581 214.756 423.735 214.688L434.527 239.962L442.691 228.169L431.191 205.977C430.945 204.096 430 202.368 428.535 201.121C427.069 199.873 425.185 199.193 423.24 199.209C421.294 199.225 419.422 199.936 417.978 201.207C416.535 202.478 415.62 204.221 415.407 206.106Z" fill="#A0616A"/>
<path d="M489.37 295.409C490.517 295.275 491.621 294.898 492.602 294.304C493.584 293.71 494.42 292.913 495.052 291.97C495.683 291.027 496.095 289.96 496.258 288.845C496.42 287.73 496.33 286.594 495.994 285.517L518.701 269.4L505.03 264.412L485.563 280.481C483.743 281.152 482.239 282.45 481.336 284.129C480.433 285.809 480.193 287.753 480.662 289.593C481.132 291.433 482.277 293.041 483.882 294.113C485.487 295.185 487.439 295.646 489.37 295.409Z" fill="#A0616A"/>
<path d="M452.353 256.811C451.483 256.811 450.615 256.727 449.761 256.562C447.695 256.179 445.758 255.307 444.12 254.022C442.483 252.738 441.194 251.08 440.369 249.196L425.249 231.229C424.929 230.85 424.696 230.408 424.566 229.933C424.436 229.458 424.412 228.962 424.494 228.478C424.577 227.993 424.765 227.531 425.046 227.123C425.326 226.715 425.693 226.37 426.122 226.112L436.879 219.623C437.276 219.383 437.718 219.223 438.18 219.15C438.641 219.078 439.112 219.095 439.566 219.201C440.021 219.308 440.449 219.5 440.826 219.769C441.203 220.037 441.523 220.375 441.765 220.764L452.422 237.873L472.83 223.175C474.455 222.345 476.332 222.112 478.119 222.519C479.905 222.927 481.482 223.946 482.561 225.393C483.639 226.839 484.148 228.615 483.994 230.397C483.84 232.178 483.033 233.847 481.721 235.096L461.351 253.203C458.958 255.515 455.724 256.812 452.353 256.811Z" fill="#2F2E41"/>
<path d="M507.499 283.832C507.471 283.832 507.443 283.832 507.416 283.831C506.919 283.819 506.431 283.706 505.983 283.499C505.535 283.292 505.136 282.995 504.813 282.628L495.249 271.755C494.923 271.385 494.682 270.952 494.541 270.484C494.4 270.016 494.362 269.524 494.43 269.041C494.499 268.558 494.672 268.094 494.937 267.681C495.203 267.268 495.556 266.914 495.973 266.644L513.881 255.009L497.657 236.002C496.713 234.468 496.367 232.655 496.682 230.894C496.996 229.132 497.951 227.54 499.371 226.408C500.791 225.276 502.581 224.679 504.415 224.727C506.249 224.775 508.004 225.464 509.36 226.669L529.078 245.447C530.63 246.829 531.815 248.556 532.531 250.482C533.246 252.408 533.472 254.475 533.188 256.504C532.904 258.534 532.118 260.466 530.899 262.135C529.68 263.803 528.064 265.159 526.189 266.085L510.073 282.749C509.742 283.091 509.343 283.363 508.9 283.549C508.458 283.735 507.981 283.832 507.499 283.832Z" fill="#2F2E41"/>
<path d="M485.531 243.768C485.378 243.768 485.224 243.759 485.072 243.74C484.406 243.661 483.777 243.397 483.26 242.981C482.743 242.564 482.36 242.012 482.155 241.389L474.969 219.917C474.788 219.374 474.816 218.786 475.047 218.262C475.277 217.737 475.694 217.312 476.222 217.064L476.455 216.956C476.666 216.858 476.876 216.762 477.089 216.669C480.441 215.154 484.089 214.364 487.783 214.353C492.578 214.362 497.267 215.735 501.273 218.303C501.81 218.652 502.186 219.192 502.318 219.807C502.451 220.422 502.33 221.064 501.982 221.593L488.5 242.175C488.184 242.664 487.746 243.066 487.227 243.345C486.707 243.624 486.124 243.769 485.531 243.768Z" fill="#E6E6E6"/>
<path d="M512.617 175.887C516.879 175.887 520.334 172.52 520.334 168.367C520.334 164.214 516.879 160.847 512.617 160.847C508.355 160.847 504.9 164.214 504.9 168.367C504.9 172.52 508.355 175.887 512.617 175.887Z" fill="#2F2E41"/>
<path d="M486.163 160.101C480.743 160.101 475.544 162.199 471.711 165.935C467.878 169.67 465.725 174.736 465.725 180.018V188.445H476.36L481.447 180.018L482.973 188.445H515.249L506.602 180.018C506.602 174.736 504.448 169.67 500.616 165.935C496.783 162.199 491.584 160.101 486.163 160.101Z" fill="#2F2E41"/>
<path d="M516.583 163.216C517.437 160.616 519.204 158.392 521.573 156.935C523.943 155.479 526.763 154.883 529.539 155.252C534.457 156.054 538.345 159.906 540.662 164.208C542.979 168.511 544.049 173.326 545.606 177.942C547.164 182.558 549.372 187.199 553.304 190.187C557.236 193.174 563.27 193.985 567.132 190.911C566.69 194.115 565.227 197.102 562.948 199.45C560.67 201.798 557.691 203.389 554.434 203.997C551.176 204.606 547.805 204.201 544.797 202.839C541.789 201.478 539.296 199.23 537.671 196.412C535.633 192.88 535.107 188.739 534.503 184.729C533.899 180.72 533.114 176.571 530.681 173.284C528.248 169.997 523.694 167.851 519.83 169.348L516.583 163.216Z" fill="#2F2E41"/>
<path d="M265.66 174.689C258.625 174.688 251.878 171.964 246.903 167.116C241.929 162.268 239.134 155.694 239.134 148.838C239.133 144.162 239.137 140.587 239.144 140.079C239.368 124.063 243.507 108.33 251.218 94.1855C238.549 111.087 231.582 131.407 231.283 152.335C231.276 152.844 231.272 156.419 231.273 161.095C231.273 167.95 234.068 174.525 239.042 179.373C244.017 184.221 250.764 186.945 257.799 186.946C263.58 186.944 269.202 185.103 273.812 181.703C278.421 178.303 281.766 173.529 283.338 168.108C278.481 172.353 272.184 174.697 265.66 174.689Z" fill="#3F3D56"/>
<path d="M337.043 106.565C345.176 106.943 353.093 109.24 360.115 113.257C367.137 117.274 373.053 122.892 377.356 129.628C381.659 136.364 384.221 144.018 384.82 151.931C385.419 159.844 384.038 167.781 380.797 175.059C385.486 169.693 388.932 163.404 390.901 156.622C392.87 149.84 393.315 142.724 392.206 135.759C391.097 128.794 388.46 122.144 384.474 116.262C380.489 110.381 375.249 105.406 369.111 101.676C362.974 97.9469 356.084 95.551 348.91 94.652C341.736 93.7529 334.448 94.3718 327.542 96.4664C320.636 98.561 314.275 102.082 308.892 106.79C303.509 111.497 299.231 117.281 296.349 123.745C301.329 118.036 307.588 113.518 314.644 110.539C321.699 107.561 329.363 106.201 337.043 106.565Z" fill="#3F3D56"/>
<path d="M345.204 335.559C338.027 335.561 331.138 332.813 326.021 327.909C320.905 323.004 317.972 316.336 317.856 309.343C317.523 289.076 317.351 264.106 317.351 261.253C317.346 254.31 318.372 247.403 320.396 240.747L320.386 240.745C321.581 237.404 323.025 234.152 324.705 231.015C319.547 237.714 315.442 245.124 312.525 253.001L312.535 253.004C310.51 259.66 309.485 266.567 309.49 273.509C309.49 276.363 309.662 301.333 309.995 321.6C310.111 328.593 313.044 335.261 318.16 340.165C323.277 345.07 330.166 347.818 337.343 347.816C343.26 347.815 349.018 345.945 353.752 342.485C358.486 339.025 361.942 334.163 363.6 328.628C358.572 333.096 352.009 335.569 345.204 335.559Z" fill="#3F3D56"/>
<path d="M99.474 446.289L109.111 446.288L113.696 410.063L99.4717 410.064L99.474 446.289Z" fill="#FFB8B8"/>
<path d="M127.698 455.009L97.409 455.01L97.4084 443.606L115.995 443.605C119.099 443.605 122.075 444.806 124.27 446.945C126.465 449.084 127.698 451.984 127.698 455.009Z" fill="#2F2E41"/>
<path d="M64.8857 446.289L74.5225 446.288L79.1078 410.063L64.8833 410.064L64.8857 446.289Z" fill="#FFB8B8"/>
<path d="M93.1094 455.009L62.8204 455.01L62.8198 443.606L81.4063 443.605C84.51 443.605 87.4866 444.806 89.6814 446.945C91.8761 449.084 93.1092 451.984 93.1094 455.009Z" fill="#2F2E41"/>
<path d="M73.3074 435.148L63.8938 434.666C63.4084 434.641 62.9329 434.522 62.4948 434.317C62.0567 434.112 61.6648 433.824 61.3417 433.47C61.0187 433.116 60.7709 432.703 60.6127 432.255C60.4546 431.807 60.3892 431.333 60.4204 430.861L71.6716 309.468L123.484 323.092L128.476 321.765L112.866 429.23C112.733 430.039 112.321 430.779 111.698 431.328C111.075 431.878 110.278 432.204 109.44 432.252L99.2919 432.713C98.7845 432.74 98.2768 432.665 97.8008 432.491C97.3249 432.318 96.891 432.05 96.5267 431.705C96.1623 431.36 95.8754 430.944 95.6842 430.486C95.4929 430.027 95.4013 429.534 95.4153 429.039L97.254 364.541C97.2626 364.242 97.1563 363.952 96.9559 363.726C96.7556 363.501 96.4758 363.356 96.1717 363.322C95.8676 363.287 95.5612 363.365 95.3129 363.539C95.0646 363.714 94.8924 363.973 94.8303 364.265L77.0983 432.3C76.9309 433.107 76.4814 433.833 75.8264 434.353C75.1715 434.873 74.3515 435.156 73.5065 435.154C73.4405 435.154 73.3741 435.152 73.3074 435.148Z" fill="#2F2E41"/>
<path d="M101.204 210.143C111.867 210.143 120.512 201.719 120.512 191.328C120.512 180.936 111.867 172.513 101.204 172.513C90.541 172.513 81.8967 180.936 81.8967 191.328C81.8967 201.719 90.541 210.143 101.204 210.143Z" fill="#FFB8B8"/>
<path d="M69.0587 246.605L71.1817 291.241L71.9491 307.48C71.9797 308.187 72.226 308.869 72.6565 309.439C73.087 310.008 73.6822 310.44 74.3658 310.678L124.154 328.254C124.556 328.4 124.983 328.473 125.412 328.469C125.902 328.471 126.388 328.377 126.84 328.193C127.293 328.008 127.702 327.736 128.044 327.394C128.386 327.052 128.654 326.646 128.832 326.2C129.009 325.755 129.093 325.279 129.078 324.801L127.037 244.544C126.903 237.96 124.415 231.627 120.004 226.638C115.592 221.649 109.532 218.316 102.869 217.214C102.387 217.142 101.897 217.071 101.407 217.007C97.2758 216.507 93.082 216.896 89.121 218.145C85.16 219.395 81.5281 221.475 78.4808 224.239C75.3255 227.067 72.8461 230.537 71.2179 234.401C69.5898 238.266 68.8527 242.432 69.0587 246.605Z" fill="#CCCCCC"/>
<path d="M147.938 319.348C146.76 318.992 145.685 318.372 144.796 317.539C143.908 316.706 143.232 315.682 142.822 314.548C142.412 313.415 142.279 312.204 142.435 311.012C142.59 309.82 143.03 308.68 143.718 307.683L126.834 285.805L141.404 284.926L155.203 305.837C156.68 306.95 157.708 308.535 158.107 310.312C158.505 312.09 158.248 313.948 157.382 315.56C156.515 317.172 155.094 318.435 153.367 319.127C151.64 319.82 149.718 319.898 147.938 319.348Z" fill="#FFB8B8"/>
<path d="M136.067 303.724C135.62 303.547 135.213 303.286 134.87 302.954C134.527 302.623 134.255 302.229 134.069 301.795L108.633 242.737C108.134 241.58 107.873 240.34 107.866 239.085C107.86 237.831 108.107 236.587 108.593 235.426C109.08 234.265 109.796 233.208 110.702 232.317C111.608 231.425 112.685 230.717 113.872 230.231C115.059 229.746 116.332 229.493 117.62 229.487C118.907 229.482 120.183 229.723 121.374 230.198C122.565 230.674 123.649 231.373 124.563 232.256C125.477 233.139 126.203 234.19 126.701 235.347L152.137 294.406C152.513 295.281 152.518 296.266 152.149 297.145C151.781 298.024 151.07 298.724 150.172 299.092L138.879 303.711C138.435 303.894 137.957 303.99 137.474 303.992C136.992 303.994 136.513 303.903 136.067 303.724Z" fill="#CCCCCC"/>
<path d="M94.9966 301.641L119.428 256.054C119.899 255.177 120.708 254.519 121.677 254.222C122.646 253.926 123.696 254.016 124.597 254.473L160.059 272.522C160.959 272.981 161.635 273.769 161.939 274.713C162.243 275.657 162.15 276.681 161.681 277.558L137.249 323.145C136.778 324.022 135.97 324.681 135.001 324.977C134.032 325.273 132.982 325.183 132.081 324.726L96.6187 306.678C95.7191 306.218 95.043 305.43 94.7389 304.486C94.4349 303.542 94.5275 302.519 94.9966 301.641Z" fill="#3F3D56"/>
<path d="M111.381 280.814C110.947 279.689 110.249 278.679 109.343 277.864C108.437 277.049 107.348 276.452 106.163 276.12C104.978 275.788 103.73 275.731 102.518 275.952C101.306 276.174 100.164 276.669 99.1833 277.397L75.7744 262.264L75.7346 276.489L97.9702 288.679C99.1976 290.05 100.881 290.957 102.726 291.239C104.571 291.522 106.459 291.162 108.059 290.224C109.659 289.286 110.868 287.828 111.476 286.108C112.084 284.387 112.05 282.513 111.381 280.814Z" fill="#FFB8B8"/>
<path d="M81.7846 284.013L62.6534 269.245C60.5838 268.568 58.7137 267.411 57.2037 265.875C55.6937 264.338 54.5889 262.467 53.9841 260.423C53.3793 258.379 53.2926 256.222 53.7314 254.138C54.1702 252.054 55.1214 250.105 56.5034 248.458L73.874 226.274C75.0811 224.836 76.7788 223.87 78.6566 223.552C80.5345 223.234 82.4671 223.585 84.1012 224.541C85.7354 225.497 86.9619 226.994 87.5565 228.759C88.1511 230.524 88.0741 232.438 87.3396 234.152L73.5955 256.061L93.7936 265.397C94.2633 265.614 94.6804 265.925 95.0172 266.311C95.3541 266.697 95.6032 267.148 95.7479 267.635C95.8927 268.121 95.9298 268.632 95.8569 269.134C95.784 269.635 95.6027 270.116 95.325 270.544L87.1718 283.118C86.8962 283.543 86.5322 283.906 86.1033 284.184C85.6745 284.463 85.1904 284.651 84.6824 284.735C84.6623 284.739 84.642 284.742 84.6217 284.745C84.1225 284.818 83.6132 284.791 83.1252 284.665C82.6373 284.539 82.181 284.317 81.7846 284.013Z" fill="#CCCCCC"/>
<path d="M86.6149 203.927C86.532 203.69 86.5058 203.439 86.5381 203.191C86.5704 202.944 86.6604 202.707 86.8013 202.498C86.9421 202.29 87.1301 202.116 87.3507 201.989C87.5713 201.862 87.8188 201.786 88.0742 201.767C88.5971 201.795 89.1088 201.926 89.5785 202.151C90.0481 202.377 90.466 202.693 90.8067 203.081C91.5055 203.866 92.3189 204.547 93.221 205.101C94.155 205.56 95.4217 205.494 95.9541 204.62C96.4541 203.798 96.1115 202.698 95.8088 201.744C95.0386 199.317 94.6076 196.8 94.5276 194.26C94.4404 191.425 94.8508 188.467 96.4611 186.256C98.5395 183.403 102.256 182.32 105.773 182.398C109.29 182.477 112.75 183.535 116.234 184.204C117.436 184.434 118.85 184.553 119.654 183.644C120.51 182.678 120.196 181.115 119.832 179.811C118.888 176.427 117.886 172.928 115.693 170.195C113.321 167.356 109.933 165.497 106.212 164.994C102.639 164.563 99.0117 164.964 95.6289 166.165C90.1175 167.857 85.2677 171.15 81.7284 175.601C78.0799 180.335 76.5033 186.285 77.3435 192.148C78.1642 197.255 80.9413 201.869 85.1147 205.06L86.6149 203.927Z" fill="#2F2E41"/>
<path d="M331.151 446.438C326.015 444.258 321.468 440.944 317.87 436.759C314.273 432.573 311.723 427.629 310.422 422.319C309.12 417.008 309.103 411.475 310.372 406.157C311.641 400.839 314.161 395.881 317.732 391.674C313.591 394.621 310.14 398.392 307.609 402.738C305.078 407.083 303.524 411.904 303.05 416.879C302.577 421.855 303.195 426.871 304.863 431.596C306.532 436.321 309.212 440.647 312.727 444.285C316.241 447.923 320.51 450.791 325.249 452.699C329.988 454.607 335.09 455.511 340.215 455.35C345.34 455.19 350.371 453.969 354.975 451.769C359.579 449.569 363.65 446.44 366.918 442.589C361.821 446.219 355.837 448.485 349.561 449.161C343.286 449.836 336.939 448.897 331.151 446.438Z" fill="#3F3D56"/>
</g>
<defs>
<clipPath id="clip0_610_22">
<rect width="664" height="456" fill="white"/>
</clipPath>
</defs>
</svg>
